<svg width="106" height="44" viewBox="0 0 106 44" fill="none" xmlns="http://www.w3.org/2000/svg">
<path d="M13.2891 22.2441C13.2962 22.0221 13.3392 21.818 13.418 21.6318C13.5039 21.4456 13.6328 21.2666 13.8047 21.0947L22.0762 13.0059C22.3483 12.7337 22.6813 12.5977 23.0752 12.5977C23.3473 12.5977 23.5908 12.6621 23.8057 12.791C24.0277 12.9199 24.2031 13.0954 24.332 13.3174C24.4681 13.5322 24.5361 13.7721 24.5361 14.0371C24.5361 14.4382 24.3857 14.7891 24.085 15.0898L16.7266 22.2441L24.085 29.3984C24.3857 29.7064 24.5361 30.0573 24.5361 30.4512C24.5361 30.7233 24.4681 30.9668 24.332 31.1816C24.2031 31.3965 24.0277 31.5684 23.8057 31.6973C23.5908 31.8262 23.3473 31.8906 23.0752 31.8906C22.6813 31.8906 22.3483 31.7546 22.0762 31.4824L13.8047 23.3936C13.6257 23.2217 13.4932 23.0426 13.4072 22.8564C13.3285 22.6631 13.2891 22.459 13.2891 22.2441Z" fill="#E4AF0A"/>
<path d="M33.5728 28L37.9888 16.022H39.1343V17.9561H38.6611L35.1416 28H33.5728ZM35.5732 24.5718L36.0381 23.3018H41.4502L41.915 24.5718H35.5732ZM42.3135 28L38.7939 17.9561V16.022H39.4663L43.8823 28H42.3135ZM45.4528 28V15.499H46.8971V28H45.4528ZM49.3226 28V15.499H50.767V28H49.3226ZM57.4939 28V19.0518H58.9382V28H57.4939ZM58.2243 17.3252C57.9532 17.3252 57.718 17.2284 57.5188 17.0347C57.3251 16.8354 57.2282 16.6003 57.2282 16.3291C57.2282 16.0524 57.3251 15.8172 57.5188 15.6235C57.718 15.4299 57.9532 15.333 58.2243 15.333C58.501 15.333 58.7362 15.4299 58.9299 15.6235C59.1236 15.8172 59.2204 16.0524 59.2204 16.3291C59.2204 16.6003 59.1236 16.8354 58.9299 17.0347C58.7362 17.2284 58.501 17.3252 58.2243 17.3252ZM66.2362 28.2822C65.1516 28.2822 64.2136 28.0277 63.4223 27.5186C62.6309 27.0094 62.0194 26.2873 61.5878 25.3521C61.1617 24.4168 60.9486 23.3073 60.9486 22.0234V22.0068C60.9486 20.7174 61.1617 19.6051 61.5878 18.6699C62.0194 17.7347 62.6282 17.0125 63.414 16.5034C64.2053 15.9943 65.1433 15.7397 66.2279 15.7397C67.0691 15.7397 67.8327 15.9058 68.5189 16.2378C69.2107 16.5643 69.7807 17.0208 70.2289 17.6074C70.6771 18.1885 70.9594 18.8608 71.0756 19.6245L71.0673 19.6411H69.5648L69.5565 19.6245C69.4237 19.1099 69.1996 18.6672 68.8842 18.2964C68.5688 17.9201 68.1841 17.6296 67.7304 17.4248C67.2821 17.2201 66.7813 17.1177 66.2279 17.1177C65.4643 17.1177 64.8002 17.3169 64.2357 17.7153C63.6768 18.1138 63.2452 18.6782 62.9408 19.4087C62.6365 20.1392 62.4843 21.0052 62.4843 22.0068V22.0234C62.4843 23.0195 62.6365 23.8828 62.9408 24.6133C63.2452 25.3438 63.6768 25.9082 64.2357 26.3066C64.8002 26.7051 65.467 26.9043 66.2362 26.9043C66.7952 26.9043 67.3015 26.8158 67.7553 26.6387C68.209 26.4561 68.5909 26.1987 68.9008 25.8667C69.2107 25.5291 69.4265 25.1307 69.5482 24.6714L69.5648 24.6548H71.0756V24.6714C70.9428 25.4019 70.655 26.0382 70.2123 26.5806C69.7696 27.1174 69.2079 27.5352 68.5272 27.834C67.8521 28.1328 67.0884 28.2822 66.2362 28.2822ZM73.0528 28V15.499H74.4971V28H73.0528ZM80.5169 28.1577C79.6702 28.1577 78.9369 27.9723 78.3172 27.6016C77.7029 27.2253 77.227 26.6912 76.8894 25.9995C76.5574 25.3078 76.3914 24.486 76.3914 23.5342V23.5176C76.3914 22.5602 76.5574 21.7357 76.8894 21.0439C77.227 20.3522 77.7029 19.821 78.3172 19.4502C78.9369 19.0794 79.6702 18.894 80.5169 18.894C81.3691 18.894 82.1023 19.0794 82.7166 19.4502C83.3308 19.821 83.804 20.3522 84.136 21.0439C84.4736 21.7357 84.6423 22.5602 84.6423 23.5176V23.5342C84.6423 24.486 84.4736 25.3078 84.136 25.9995C83.804 26.6912 83.3308 27.2253 82.7166 27.6016C82.1023 27.9723 81.3691 28.1577 80.5169 28.1577ZM80.5169 26.8794C81.0813 26.8794 81.56 26.7466 81.9529 26.481C82.3458 26.2153 82.6446 25.8335 82.8494 25.3354C83.0597 24.8374 83.1648 24.237 83.1648 23.5342V23.5176C83.1648 22.8092 83.0597 22.2061 82.8494 21.708C82.6446 21.21 82.3458 20.8309 81.9529 20.5708C81.56 20.3052 81.0813 20.1724 80.5169 20.1724C79.9524 20.1724 79.4737 20.3052 79.0808 20.5708C78.6879 20.8309 78.3863 21.21 78.176 21.708C77.9713 22.2061 77.8689 22.8092 77.8689 23.5176V23.5342C77.8689 24.237 77.9713 24.8374 78.176 25.3354C78.3863 25.8335 78.6879 26.2153 79.0808 26.481C79.4737 26.7466 79.9524 26.8794 80.5169 26.8794ZM89.4501 28.1577C88.775 28.1577 88.2078 28.0304 87.7485 27.7759C87.2892 27.5158 86.9433 27.1395 86.7109 26.647C86.484 26.1489 86.3705 25.5485 86.3705 24.8457V19.0518H87.8149V24.4971C87.8149 25.2995 87.9698 25.8971 88.2797 26.29C88.5952 26.6829 89.1098 26.8794 89.8237 26.8794C90.2166 26.8794 90.5624 26.8213 90.8613 26.7051C91.1656 26.5889 91.4202 26.4229 91.6249 26.207C91.8297 25.9857 91.9819 25.7201 92.0815 25.4102C92.1866 25.0947 92.2392 24.7406 92.2392 24.3477V19.0518H93.6835V28H92.2392V26.6636H92.1064C91.9625 26.979 91.7661 27.2502 91.517 27.4771C91.268 27.6984 90.9692 27.8672 90.6205 27.9834C90.2774 28.0996 89.8873 28.1577 89.4501 28.1577ZM99.255 28.1577C98.5024 28.1577 97.8439 27.9668 97.2794 27.585C96.715 27.2031 96.2778 26.6663 95.9679 25.9746C95.658 25.2773 95.503 24.4639 95.503 23.5342V23.5176C95.503 22.5824 95.658 21.7689 95.9679 21.0771C96.2778 20.3854 96.7122 19.8486 97.2711 19.4668C97.8356 19.085 98.4969 18.894 99.255 18.894C99.6645 18.894 100.049 18.9604 100.409 19.0933C100.774 19.2205 101.098 19.4004 101.38 19.6328C101.662 19.8652 101.884 20.1419 102.044 20.4629H102.177V15.499H103.621V28H102.177V26.5723H102.044C101.861 26.9043 101.632 27.1893 101.355 27.4272C101.078 27.6597 100.763 27.8395 100.409 27.9668C100.055 28.0941 99.67 28.1577 99.255 28.1577ZM99.587 26.8794C100.129 26.8794 100.597 26.7438 100.99 26.4727C101.383 26.2015 101.684 25.8169 101.895 25.3188C102.105 24.8153 102.21 24.2204 102.21 23.5342V23.5176C102.21 22.8258 102.105 22.231 101.895 21.7329C101.684 21.2349 101.383 20.8503 100.99 20.5791C100.597 20.3079 100.129 20.1724 99.587 20.1724C99.0447 20.1724 98.5771 20.3079 98.1842 20.5791C97.7968 20.8447 97.498 21.2266 97.2877 21.7246C97.083 22.2227 96.9806 22.8203 96.9806 23.5176V23.5342C96.9806 24.2259 97.083 24.8236 97.2877 25.3271C97.498 25.8252 97.7968 26.2098 98.1842 26.481C98.5771 26.7466 99.0447 26.8794 99.587 26.8794Z" fill="#E4AF0A"/>
</svg>
