<svg width="361" height="58" viewBox="0 0 361 58" fill="none" xmlns="http://www.w3.org/2000/svg">
<rect width="65" height="58" rx="11" fill="white"/>
<path d="M9.40759 46V39.6836H10.3685V40.6797H10.4623C10.6068 40.3281 10.8314 40.0566 11.1361 39.8652C11.4408 39.6699 11.8041 39.5723 12.226 39.5723C12.64 39.5723 12.9955 39.6719 13.2924 39.8711C13.5931 40.0703 13.8197 40.3398 13.972 40.6797H14.0658C14.2377 40.3398 14.4955 40.0703 14.8392 39.8711C15.183 39.6719 15.5697 39.5723 15.9994 39.5723C16.6439 39.5723 17.14 39.752 17.4877 40.1113C17.8353 40.4668 18.0092 40.9746 18.0092 41.6348V46H17.0013V41.8691C17.0013 40.9434 16.558 40.4805 15.6713 40.4805C15.2416 40.4805 14.89 40.6211 14.6166 40.9023C14.3431 41.1836 14.2064 41.5293 14.2064 41.9395V46H13.1986V41.7109C13.1986 41.3359 13.0775 41.0371 12.8353 40.8145C12.597 40.5918 12.2787 40.4805 11.8802 40.4805C11.4701 40.4805 11.1224 40.6367 10.8373 40.9492C10.556 41.2617 10.4154 41.6406 10.4154 42.0859V46H9.40759ZM21.9605 40.4629C21.4566 40.4629 21.0426 40.6328 20.7183 40.9727C20.3941 41.3125 20.2125 41.7617 20.1734 42.3203H23.6539C23.6422 41.7617 23.482 41.3125 23.1734 40.9727C22.8648 40.6328 22.4605 40.4629 21.9605 40.4629ZM23.6246 44.3652H24.6324C24.4801 44.9121 24.1695 45.3398 23.7008 45.6484C23.2359 45.957 22.6597 46.1113 21.9722 46.1113C21.0972 46.1113 20.4039 45.8184 19.8922 45.2324C19.3805 44.6426 19.1246 43.8477 19.1246 42.8477C19.1246 41.8516 19.3824 41.0566 19.898 40.4629C20.4137 39.8691 21.1051 39.5723 21.9722 39.5723C22.8238 39.5723 23.4937 39.8555 23.982 40.4219C24.4703 40.9883 24.7144 41.7637 24.7144 42.748V43.1348H20.1734V43.1816C20.2008 43.8066 20.3765 44.3027 20.7008 44.6699C21.0289 45.0371 21.4605 45.2207 21.9957 45.2207C22.8121 45.2207 23.3551 44.9355 23.6246 44.3652ZM25.742 41.4121C25.742 40.8887 25.9666 40.4512 26.4158 40.0996C26.865 39.748 27.4256 39.5723 28.0975 39.5723C28.7576 39.5723 29.3025 39.7246 29.7322 40.0293C30.1619 40.334 30.41 40.7461 30.4764 41.2656H29.4803C29.41 41.0078 29.2537 40.8047 29.0115 40.6562C28.7732 40.5039 28.4666 40.4277 28.0916 40.4277C27.7127 40.4277 27.3943 40.5156 27.1365 40.6914C26.8826 40.8672 26.7557 41.0938 26.7557 41.3711C26.7557 41.5859 26.8435 41.7656 27.0193 41.9102C27.199 42.0508 27.4764 42.166 27.8514 42.2559L28.824 42.4902C29.4256 42.6348 29.8689 42.8438 30.1541 43.1172C30.4432 43.3906 30.5877 43.752 30.5877 44.2012C30.5877 44.7598 30.3475 45.2188 29.867 45.5781C29.3865 45.9336 28.783 46.1113 28.0564 46.1113C27.3533 46.1113 26.7771 45.9551 26.3279 45.6426C25.8787 45.3301 25.6267 44.9121 25.5721 44.3887H26.6092C26.6951 44.6621 26.865 44.877 27.1189 45.0332C27.3728 45.1855 27.6971 45.2617 28.0916 45.2617C28.5174 45.2617 28.867 45.1699 29.1404 44.9863C29.4139 44.8027 29.5506 44.5664 29.5506 44.2773C29.5506 43.8477 29.2166 43.5508 28.5486 43.3867L27.4646 43.123C26.867 42.9785 26.4295 42.7715 26.1521 42.502C25.8787 42.2285 25.742 41.8652 25.742 41.4121ZM31.498 41.4121C31.498 40.8887 31.7227 40.4512 32.1719 40.0996C32.6211 39.748 33.1816 39.5723 33.8535 39.5723C34.5137 39.5723 35.0586 39.7246 35.4883 40.0293C35.918 40.334 36.166 40.7461 36.2324 41.2656H35.2363C35.166 41.0078 35.0098 40.8047 34.7676 40.6562C34.5293 40.5039 34.2227 40.4277 33.8477 40.4277C33.4688 40.4277 33.1504 40.5156 32.8926 40.6914C32.6387 40.8672 32.5117 41.0938 32.5117 41.3711C32.5117 41.5859 32.5996 41.7656 32.7754 41.9102C32.9551 42.0508 33.2324 42.166 33.6074 42.2559L34.5801 42.4902C35.1816 42.6348 35.625 42.8438 35.9102 43.1172C36.1992 43.3906 36.3438 43.752 36.3438 44.2012C36.3438 44.7598 36.1035 45.2188 35.623 45.5781C35.1426 45.9336 34.5391 46.1113 33.8125 46.1113C33.1094 46.1113 32.5332 45.9551 32.084 45.6426C31.6348 45.3301 31.3828 44.9121 31.3281 44.3887H32.3652C32.4512 44.6621 32.6211 44.877 32.875 45.0332C33.1289 45.1855 33.4531 45.2617 33.8477 45.2617C34.2734 45.2617 34.623 45.1699 34.8965 44.9863C35.1699 44.8027 35.3066 44.5664 35.3066 44.2773C35.3066 43.8477 34.9727 43.5508 34.3047 43.3867L33.2207 43.123C32.623 42.9785 32.1855 42.7715 31.9082 42.502C31.6348 42.2285 31.498 41.8652 31.498 41.4121ZM39.4631 45.2266C39.9826 45.2266 40.4123 45.0762 40.7522 44.7754C41.0959 44.4746 41.2678 44.0977 41.2678 43.6445V43.0645L39.5686 43.1758C39.092 43.207 38.7424 43.3066 38.5197 43.4746C38.2971 43.6426 38.1857 43.8867 38.1857 44.207C38.1857 44.5234 38.3049 44.7734 38.5432 44.957C38.7815 45.1367 39.0881 45.2266 39.4631 45.2266ZM39.2756 46.1113C38.6545 46.1113 38.1428 45.9414 37.7404 45.6016C37.342 45.2578 37.1428 44.8008 37.1428 44.2305C37.1428 43.668 37.342 43.2266 37.7404 42.9062C38.1389 42.5859 38.7072 42.4043 39.4455 42.3613L41.2678 42.25V41.6758C41.2678 41.2852 41.1467 40.9863 40.9045 40.7793C40.6623 40.5723 40.3068 40.4688 39.8381 40.4688C39.4592 40.4688 39.1447 40.5371 38.8947 40.6738C38.6447 40.8105 38.4846 41.0039 38.4143 41.2539H37.3947C37.4611 40.75 37.7209 40.3438 38.174 40.0352C38.6311 39.7266 39.1975 39.5723 39.8732 39.5723C40.6389 39.5723 41.2307 39.7578 41.6486 40.1289C42.0666 40.5 42.2756 41.0156 42.2756 41.6758V46H41.3147V45.0684H41.2209C41.0178 45.4043 40.7482 45.6621 40.4123 45.8418C40.0764 46.0215 39.6975 46.1113 39.2756 46.1113ZM46.2856 45.0156C46.8676 45.0156 47.3246 44.8125 47.6567 44.4062C47.9926 43.9961 48.1606 43.4434 48.1606 42.748C48.1606 42.0566 47.9926 41.5059 47.6567 41.0957C47.3207 40.6855 46.8637 40.4805 46.2856 40.4805C45.7074 40.4805 45.2582 40.6836 44.9379 41.0898C44.6176 41.4961 44.4574 42.0488 44.4574 42.748C44.4574 43.4473 44.6176 44 44.9379 44.4062C45.2582 44.8125 45.7074 45.0156 46.2856 45.0156ZM46.3324 48.4258C45.5785 48.4258 44.9672 48.2695 44.4985 47.957C44.0336 47.6445 43.7621 47.2246 43.684 46.6973H44.7504C44.8051 46.959 44.9711 47.166 45.2485 47.3184C45.5258 47.4707 45.8871 47.5469 46.3324 47.5469C46.8988 47.5469 47.3402 47.4141 47.6567 47.1484C47.977 46.8867 48.1371 46.5234 48.1371 46.0586V44.8164H48.0434C47.8442 45.1641 47.5727 45.4336 47.2289 45.625C46.8852 45.8125 46.4965 45.9062 46.0629 45.9062C45.2504 45.9062 44.6059 45.6191 44.1293 45.0449C43.6527 44.4668 43.4145 43.7012 43.4145 42.748C43.4145 41.7949 43.6547 41.0273 44.1352 40.4453C44.6156 39.8633 45.2582 39.5723 46.0629 39.5723C46.5043 39.5723 46.9067 39.6738 47.2699 39.877C47.6332 40.0762 47.9067 40.3457 48.0902 40.6855H48.184V39.6836H49.1449V46.1113C49.1449 46.8184 48.891 47.3809 48.3832 47.7988C47.8754 48.2168 47.1918 48.4258 46.3324 48.4258ZM53.1549 40.4629C52.651 40.4629 52.2369 40.6328 51.9127 40.9727C51.5885 41.3125 51.4069 41.7617 51.3678 42.3203H54.8483C54.8365 41.7617 54.6764 41.3125 54.3678 40.9727C54.0592 40.6328 53.6549 40.4629 53.1549 40.4629ZM54.819 44.3652H55.8268C55.6744 44.9121 55.3639 45.3398 54.8951 45.6484C54.4303 45.957 53.8541 46.1113 53.1666 46.1113C52.2916 46.1113 51.5983 45.8184 51.0865 45.2324C50.5748 44.6426 50.319 43.8477 50.319 42.8477C50.319 41.8516 50.5768 41.0566 51.0924 40.4629C51.608 39.8691 52.2994 39.5723 53.1666 39.5723C54.0182 39.5723 54.6881 39.8555 55.1764 40.4219C55.6647 40.9883 55.9088 41.7637 55.9088 42.748V43.1348H51.3678V43.1816C51.3951 43.8066 51.5709 44.3027 51.8951 44.6699C52.2233 45.0371 52.6549 45.2207 53.1901 45.2207C54.0065 45.2207 54.5494 44.9355 54.819 44.3652Z" fill="#007AFF"/>
<path d="M32.5 10.25C25.9252 10.25 20.5952 14.3737 20.5952 19.4605C20.5952 22.3997 22.3746 25.0172 25.1454 26.7036L24.5168 30.25L28.7652 28.2081C29.9399 28.5082 31.1953 28.6711 32.5 28.6711C39.0748 28.6711 44.4047 24.5474 44.4047 19.4605C44.4047 14.3737 39.0748 10.25 32.5 10.25Z" fill="#007AFF"/>
<rect x="74" width="65" height="58" rx="11" fill="white"/>
<path d="M115.956 24.928L113.165 22.1369C112.168 21.1401 110.473 21.5389 110.074 22.8347C109.775 23.7318 108.779 24.2302 107.881 24.0308C105.888 23.5324 103.197 20.9407 102.698 18.8475C102.399 17.9503 102.997 16.9535 103.894 16.6545C105.19 16.2558 105.589 14.5612 104.592 13.5644L101.801 10.7733C101.004 10.0756 99.8074 10.0756 99.1096 10.7733L97.2157 12.6673C95.3217 14.6609 97.415 19.9439 102.1 24.6289C106.785 29.3139 112.068 31.5069 114.062 29.5133L115.956 27.6193C116.653 26.8219 116.653 25.6257 115.956 24.928Z" fill="#007AFF"/>
<path d="M103.596 41.6172H102.577C102.491 41.2852 102.305 41.0137 102.02 40.8027C101.739 40.5879 101.382 40.4805 100.948 40.4805C100.382 40.4805 99.9304 40.6914 99.5944 41.1133C99.2624 41.5352 99.0964 42.1035 99.0964 42.8184C99.0964 43.5449 99.2643 44.125 99.6003 44.5586C99.9362 44.9883 100.385 45.2031 100.948 45.2031C101.374 45.2031 101.727 45.1074 102.008 44.916C102.294 44.7246 102.483 44.4512 102.577 44.0957H103.596C103.503 44.6934 103.223 45.1797 102.758 45.5547C102.294 45.9258 101.692 46.1113 100.954 46.1113C100.067 46.1113 99.362 45.8145 98.8386 45.2207C98.3151 44.623 98.0534 43.8223 98.0534 42.8184C98.0534 41.834 98.3151 41.0469 98.8386 40.457C99.362 39.8672 100.065 39.5723 100.948 39.5723C101.686 39.5723 102.288 39.7656 102.753 40.1523C103.221 40.5391 103.503 41.0273 103.596 41.6172ZM106.622 45.2266C107.141 45.2266 107.571 45.0762 107.911 44.7754C108.255 44.4746 108.427 44.0977 108.427 43.6445V43.0645L106.727 43.1758C106.251 43.207 105.901 43.3066 105.679 43.4746C105.456 43.6426 105.345 43.8867 105.345 44.207C105.345 44.5234 105.464 44.7734 105.702 44.957C105.94 45.1367 106.247 45.2266 106.622 45.2266ZM106.434 46.1113C105.813 46.1113 105.302 45.9414 104.899 45.6016C104.501 45.2578 104.302 44.8008 104.302 44.2305C104.302 43.668 104.501 43.2266 104.899 42.9062C105.298 42.5859 105.866 42.4043 106.604 42.3613L108.427 42.25V41.6758C108.427 41.2852 108.306 40.9863 108.063 40.7793C107.821 40.5723 107.466 40.4688 106.997 40.4688C106.618 40.4688 106.304 40.5371 106.054 40.6738C105.804 40.8105 105.643 41.0039 105.573 41.2539H104.554C104.62 40.75 104.88 40.3438 105.333 40.0352C105.79 39.7266 106.356 39.5723 107.032 39.5723C107.798 39.5723 108.39 39.7578 108.808 40.1289C109.225 40.5 109.434 41.0156 109.434 41.6758V46H108.474V45.0684H108.38C108.177 45.4043 107.907 45.6621 107.571 45.8418C107.235 46.0215 106.856 46.1113 106.434 46.1113ZM110.948 46V37.1758H111.956V46H110.948ZM113.564 46V37.1758H114.572V46H113.564Z" fill="#007AFF"/>
<rect x="148" width="65" height="58" rx="11" fill="white"/>
<path d="M158.813 46V40.5273H157.764V39.6836H158.813V38.9805C158.813 37.7383 159.424 37.1172 160.647 37.1172C160.901 37.1172 161.127 37.1367 161.326 37.1758V37.9961C161.225 37.9766 161.067 37.9668 160.852 37.9668C160.492 37.9668 160.231 38.0527 160.067 38.2246C159.903 38.3965 159.821 38.6582 159.821 39.0098V39.6836H161.268V40.5273H159.821V46H158.813ZM164.1 45.2266C164.62 45.2266 165.049 45.0762 165.389 44.7754C165.733 44.4746 165.905 44.0977 165.905 43.6445V43.0645L164.206 43.1758C163.729 43.207 163.379 43.3066 163.157 43.4746C162.934 43.6426 162.823 43.8867 162.823 44.207C162.823 44.5234 162.942 44.7734 163.18 44.957C163.418 45.1367 163.725 45.2266 164.1 45.2266ZM163.913 46.1113C163.291 46.1113 162.78 45.9414 162.377 45.6016C161.979 45.2578 161.78 44.8008 161.78 44.2305C161.78 43.668 161.979 43.2266 162.377 42.9062C162.776 42.5859 163.344 42.4043 164.082 42.3613L165.905 42.25V41.6758C165.905 41.2852 165.784 40.9863 165.541 40.7793C165.299 40.5723 164.944 40.4688 164.475 40.4688C164.096 40.4688 163.782 40.5371 163.532 40.6738C163.282 40.8105 163.122 41.0039 163.051 41.2539H162.032C162.098 40.75 162.358 40.3438 162.811 40.0352C163.268 39.7266 163.834 39.5723 164.51 39.5723C165.276 39.5723 165.868 39.7578 166.286 40.1289C166.704 40.5 166.913 41.0156 166.913 41.6758V46H165.952V45.0684H165.858C165.655 45.4043 165.385 45.6621 165.049 45.8418C164.713 46.0215 164.334 46.1113 163.913 46.1113ZM173.594 41.6172H172.575C172.489 41.2852 172.303 41.0137 172.018 40.8027C171.737 40.5879 171.38 40.4805 170.946 40.4805C170.38 40.4805 169.928 40.6914 169.592 41.1133C169.26 41.5352 169.094 42.1035 169.094 42.8184C169.094 43.5449 169.262 44.125 169.598 44.5586C169.934 44.9883 170.383 45.2031 170.946 45.2031C171.372 45.2031 171.725 45.1074 172.007 44.916C172.292 44.7246 172.481 44.4512 172.575 44.0957H173.594C173.501 44.6934 173.221 45.1797 172.757 45.5547C172.292 45.9258 171.69 46.1113 170.952 46.1113C170.065 46.1113 169.36 45.8145 168.837 45.2207C168.313 44.623 168.051 43.8223 168.051 42.8184C168.051 41.834 168.313 41.0469 168.837 40.457C169.36 39.8672 170.063 39.5723 170.946 39.5723C171.684 39.5723 172.286 39.7656 172.751 40.1523C173.219 40.5391 173.501 41.0273 173.594 41.6172ZM177.194 40.4629C176.69 40.4629 176.276 40.6328 175.952 40.9727C175.628 41.3125 175.446 41.7617 175.407 42.3203H178.888C178.876 41.7617 178.716 41.3125 178.407 40.9727C178.099 40.6328 177.694 40.4629 177.194 40.4629ZM178.858 44.3652H179.866C179.714 44.9121 179.403 45.3398 178.934 45.6484C178.47 45.957 177.893 46.1113 177.206 46.1113C176.331 46.1113 175.638 45.8184 175.126 45.2324C174.614 44.6426 174.358 43.8477 174.358 42.8477C174.358 41.8516 174.616 41.0566 175.132 40.4629C175.647 39.8691 176.339 39.5723 177.206 39.5723C178.058 39.5723 178.727 39.8555 179.216 40.4219C179.704 40.9883 179.948 41.7637 179.948 42.748V43.1348H175.407V43.1816C175.434 43.8066 175.61 44.3027 175.934 44.6699C176.263 45.0371 176.694 45.2207 177.229 45.2207C178.046 45.2207 178.589 44.9355 178.858 44.3652ZM181.544 38.0488H182.552V39.6836H183.958V40.5273H182.552V44.1016C182.552 44.4727 182.626 44.7422 182.775 44.9102C182.923 45.0781 183.161 45.1621 183.489 45.1621C183.634 45.1621 183.79 45.1543 183.958 45.1387V45.9883C183.735 46.0273 183.538 46.0469 183.366 46.0469C182.714 46.0469 182.247 45.916 181.966 45.6543C181.685 45.3926 181.544 44.9609 181.544 44.3594V40.5273H180.525V39.6836H181.544V38.0488ZM185.097 46V39.6836H186.105V46H185.097ZM186.099 38.1953C185.962 38.332 185.796 38.4004 185.601 38.4004C185.406 38.4004 185.24 38.332 185.103 38.1953C184.966 38.0547 184.898 37.8887 184.898 37.6973C184.898 37.5059 184.966 37.3418 185.103 37.2051C185.24 37.0645 185.406 36.9941 185.601 36.9941C185.796 36.9941 185.962 37.0645 186.099 37.2051C186.236 37.3418 186.304 37.5059 186.304 37.6973C186.304 37.8887 186.236 38.0547 186.099 38.1953ZM187.619 46V39.6836H188.58V40.6797H188.673C188.818 40.3281 189.042 40.0566 189.347 39.8652C189.652 39.6699 190.015 39.5723 190.437 39.5723C190.851 39.5723 191.207 39.6719 191.503 39.8711C191.804 40.0703 192.031 40.3398 192.183 40.6797H192.277C192.449 40.3398 192.707 40.0703 193.05 39.8711C193.394 39.6719 193.781 39.5723 194.21 39.5723C194.855 39.5723 195.351 39.752 195.699 40.1113C196.046 40.4668 196.22 40.9746 196.22 41.6348V46H195.212V41.8691C195.212 40.9434 194.769 40.4805 193.882 40.4805C193.453 40.4805 193.101 40.6211 192.828 40.9023C192.554 41.1836 192.417 41.5293 192.417 41.9395V46H191.41V41.7109C191.41 41.3359 191.289 41.0371 191.046 40.8145C190.808 40.5918 190.49 40.4805 190.091 40.4805C189.681 40.4805 189.334 40.6367 189.048 40.9492C188.767 41.2617 188.626 41.6406 188.626 42.0859V46H187.619ZM200.172 40.4629C199.668 40.4629 199.254 40.6328 198.929 40.9727C198.605 41.3125 198.424 41.7617 198.384 42.3203H201.865C201.853 41.7617 201.693 41.3125 201.384 40.9727C201.076 40.6328 200.672 40.4629 200.172 40.4629ZM201.836 44.3652H202.843C202.691 44.9121 202.381 45.3398 201.912 45.6484C201.447 45.957 200.871 46.1113 200.183 46.1113C199.308 46.1113 198.615 45.8184 198.103 45.2324C197.592 44.6426 197.336 43.8477 197.336 42.8477C197.336 41.8516 197.593 41.0566 198.109 40.4629C198.625 39.8691 199.316 39.5723 200.183 39.5723C201.035 39.5723 201.705 39.8555 202.193 40.4219C202.681 40.9883 202.926 41.7637 202.926 42.748V43.1348H198.384V43.1816C198.412 43.8066 198.588 44.3027 198.912 44.6699C199.24 45.0371 199.672 45.2207 200.207 45.2207C201.023 45.2207 201.566 44.9355 201.836 44.3652Z" fill="#007AFF"/>
<path d="M192.456 11.7701C192.335 11.7233 192.219 11.6998 192.107 11.6998C191.856 11.6998 191.647 11.7891 191.479 11.9671L185.857 17.6204V15.3001C185.857 14.1843 185.464 13.2305 184.678 12.4383C183.892 11.6461 182.946 11.25 181.839 11.25H172.018C170.911 11.25 169.965 11.6461 169.179 12.4383C168.393 13.2305 168 14.1843 168 15.3001V25.2001C168 26.3157 168.393 27.2695 169.179 28.0617C169.965 28.8539 170.911 29.25 172.018 29.25H181.839C182.946 29.25 183.892 28.8539 184.678 28.0617C185.464 27.2695 185.857 26.3158 185.857 25.2001V22.8656L191.479 28.5329C191.647 28.7108 191.856 28.8 192.107 28.8C192.219 28.8 192.335 28.7766 192.456 28.7299C192.819 28.5704 193 28.294 193 27.9002V12.6C193 12.2061 192.819 11.9296 192.456 11.7701Z" fill="#007AFF"/>
<rect x="222" width="65" height="58" rx="11" fill="white"/>
<path d="M244.542 46V39.6836H245.503V40.6797H245.596C245.741 40.3281 245.966 40.0566 246.27 39.8652C246.575 39.6699 246.938 39.5723 247.36 39.5723C247.774 39.5723 248.13 39.6719 248.426 39.8711C248.727 40.0703 248.954 40.3398 249.106 40.6797H249.2C249.372 40.3398 249.63 40.0703 249.973 39.8711C250.317 39.6719 250.704 39.5723 251.133 39.5723C251.778 39.5723 252.274 39.752 252.622 40.1113C252.969 40.4668 253.143 40.9746 253.143 41.6348V46H252.135V41.8691C252.135 40.9434 251.692 40.4805 250.805 40.4805C250.376 40.4805 250.024 40.6211 249.751 40.9023C249.477 41.1836 249.341 41.5293 249.341 41.9395V46H248.333V41.7109C248.333 41.3359 248.212 41.0371 247.969 40.8145C247.731 40.5918 247.413 40.4805 247.014 40.4805C246.604 40.4805 246.257 40.6367 245.971 40.9492C245.69 41.2617 245.549 41.6406 245.549 42.0859V46H244.542ZM256.52 45.2266C257.04 45.2266 257.47 45.0762 257.809 44.7754C258.153 44.4746 258.325 44.0977 258.325 43.6445V43.0645L256.626 43.1758C256.149 43.207 255.8 43.3066 255.577 43.4746C255.354 43.6426 255.243 43.8867 255.243 44.207C255.243 44.5234 255.362 44.7734 255.6 44.957C255.839 45.1367 256.145 45.2266 256.52 45.2266ZM256.333 46.1113C255.712 46.1113 255.2 45.9414 254.798 45.6016C254.399 45.2578 254.2 44.8008 254.2 44.2305C254.2 43.668 254.399 43.2266 254.798 42.9062C255.196 42.5859 255.765 42.4043 256.503 42.3613L258.325 42.25V41.6758C258.325 41.2852 258.204 40.9863 257.962 40.7793C257.72 40.5723 257.364 40.4688 256.895 40.4688C256.516 40.4688 256.202 40.5371 255.952 40.6738C255.702 40.8105 255.542 41.0039 255.472 41.2539H254.452C254.518 40.75 254.778 40.3438 255.231 40.0352C255.688 39.7266 256.255 39.5723 256.931 39.5723C257.696 39.5723 258.288 39.7578 258.706 40.1289C259.124 40.5 259.333 41.0156 259.333 41.6758V46H258.372V45.0684H258.278C258.075 45.4043 257.806 45.6621 257.47 45.8418C257.134 46.0215 256.755 46.1113 256.333 46.1113ZM260.812 46V39.6836H261.819V46H260.812ZM261.814 38.1953C261.677 38.332 261.511 38.4004 261.316 38.4004C261.12 38.4004 260.954 38.332 260.817 38.1953C260.681 38.0547 260.612 37.8887 260.612 37.6973C260.612 37.5059 260.681 37.3418 260.817 37.2051C260.954 37.0645 261.12 36.9941 261.316 36.9941C261.511 36.9941 261.677 37.0645 261.814 37.2051C261.95 37.3418 262.019 37.5059 262.019 37.6973C262.019 37.8887 261.95 38.0547 261.814 38.1953ZM263.392 46V37.1758H264.4V46H263.392Z" fill="#007AFF"/>
<path d="M267 12.4061V27.9276C267 28.1597 267 28.5245 267 28.75L258.393 20.6922L267 11.75C267 11.9534 267 12.1719 267 12.4061Z" fill="#007AFF"/>
<path d="M242 27.9225V12.401C242 12.1689 242 11.9314 242 11.7633L250.595 20.6923L242 28.7456C242 28.5334 242 28.1546 242 27.9225Z" fill="#007AFF"/>
<path d="M255.331 22.2262C254.938 22.6347 254.284 22.6347 253.89 22.2262L243.812 11.7589H265.41L255.331 22.2262Z" fill="#007AFF"/>
<path d="M251.26 21.6475L253.907 24.149C254.299 24.5197 254.915 24.5122 255.298 24.1321L257.838 21.6121L265.418 28.7421H243.812L251.26 21.6475Z" fill="#007AFF"/>
<rect x="296" width="65" height="58" rx="11" fill="white"/>
<path d="M331.184 19.6766C330.427 19.2863 329.622 18.9889 328.824 18.6803C328.362 18.5019 327.92 18.2937 327.529 18.0037C326.76 17.4312 326.907 16.5018 327.808 16.1338C328.063 16.0297 328.33 15.9962 328.601 15.9814C329.645 15.9293 330.638 16.1078 331.583 16.5316C332.053 16.7435 332.208 16.6765 332.368 16.2193C332.535 15.736 332.675 15.2453 332.83 14.7583C332.934 14.4311 332.806 14.2155 332.476 14.0779C331.87 13.8289 331.248 13.6504 330.594 13.5538C329.741 13.4311 329.741 13.4274 329.737 12.6281C329.733 11.5017 329.733 11.5017 328.521 11.5017C328.346 11.5017 328.171 11.4979 327.995 11.5017C327.429 11.5165 327.334 11.6095 327.318 12.1411C327.31 12.379 327.318 12.6169 327.314 12.8586C327.31 13.5649 327.306 13.5538 326.58 13.7991C324.826 14.3939 323.742 15.5092 323.627 17.2937C323.523 18.8736 324.408 19.9406 325.799 20.7176C326.656 21.1971 327.605 21.4797 328.513 21.8552C328.868 22.0001 329.207 22.1674 329.502 22.3979C330.375 23.0708 330.215 24.1898 329.179 24.6136C328.625 24.8404 328.039 24.8962 327.437 24.8255C326.509 24.7177 325.62 24.4909 324.783 24.0857C324.292 23.8478 324.149 23.911 323.981 24.4054C323.838 24.833 323.71 25.2642 323.583 25.6954C323.411 26.2754 323.475 26.4129 324.069 26.6843C324.826 27.0263 325.636 27.2011 326.461 27.3237C327.106 27.4204 327.126 27.4464 327.134 28.071C327.138 28.3535 327.138 28.6398 327.142 28.9223C327.146 29.2792 327.33 29.4874 327.724 29.4948C328.171 29.5023 328.621 29.5023 329.068 29.4911C329.434 29.4837 329.622 29.2978 329.622 28.952C329.622 28.5654 329.642 28.1751 329.626 27.7884C329.606 27.3944 329.789 27.1936 330.196 27.0895C331.132 26.8516 331.929 26.3832 332.543 25.6843C334.249 23.7511 333.6 20.922 331.184 19.6766Z" fill="#007AFF"/>
<path d="M322.826 39.5723C323.631 39.5723 324.273 39.8691 324.754 40.4629C325.238 41.0566 325.48 41.8496 325.48 42.8418C325.48 43.8301 325.238 44.623 324.754 45.2207C324.269 45.8145 323.627 46.1113 322.826 46.1113C322.377 46.1113 321.978 46.0195 321.631 45.8359C321.283 45.6484 321.023 45.3867 320.851 45.0508H320.758V48.1094H319.75V39.6836H320.711V40.7383H320.804C321.008 40.375 321.287 40.0898 321.642 39.8828C322.002 39.6758 322.396 39.5723 322.826 39.5723ZM322.586 45.2031C323.164 45.2031 323.617 44.9941 323.945 44.5762C324.273 44.1582 324.437 43.5801 324.437 42.8418C324.437 42.1035 324.273 41.5254 323.945 41.1074C323.621 40.6895 323.17 40.4805 322.592 40.4805C322.021 40.4805 321.568 40.6934 321.232 41.1191C320.896 41.541 320.728 42.1152 320.728 42.8418C320.728 43.5645 320.894 44.1387 321.226 44.5645C321.562 44.9902 322.015 45.2031 322.586 45.2031ZM328.6 45.2266C329.119 45.2266 329.549 45.0762 329.889 44.7754C330.232 44.4746 330.404 44.0977 330.404 43.6445V43.0645L328.705 43.1758C328.229 43.207 327.879 43.3066 327.656 43.4746C327.434 43.6426 327.322 43.8867 327.322 44.207C327.322 44.5234 327.441 44.7734 327.68 44.957C327.918 45.1367 328.225 45.2266 328.6 45.2266ZM328.412 46.1113C327.791 46.1113 327.279 45.9414 326.877 45.6016C326.479 45.2578 326.279 44.8008 326.279 44.2305C326.279 43.668 326.479 43.2266 326.877 42.9062C327.275 42.5859 327.844 42.4043 328.582 42.3613L330.404 42.25V41.6758C330.404 41.2852 330.283 40.9863 330.041 40.7793C329.799 40.5723 329.443 40.4688 328.975 40.4688C328.596 40.4688 328.281 40.5371 328.031 40.6738C327.781 40.8105 327.621 41.0039 327.551 41.2539H326.531C326.598 40.75 326.857 40.3438 327.311 40.0352C327.768 39.7266 328.334 39.5723 329.01 39.5723C329.775 39.5723 330.367 39.7578 330.785 40.1289C331.203 40.5 331.412 41.0156 331.412 41.6758V46H330.451V45.0684H330.357C330.154 45.4043 329.885 45.6621 329.549 45.8418C329.213 46.0215 328.834 46.1113 328.412 46.1113ZM333.172 48.2852C333.012 48.2852 332.862 48.2734 332.721 48.25V47.3887C332.822 47.4082 332.963 47.418 333.143 47.418C333.436 47.418 333.668 47.3398 333.84 47.1836C334.016 47.0273 334.17 46.7598 334.303 46.3809L334.42 46.0059L332.082 39.6836H333.172L334.906 44.8809H335L336.729 39.6836H337.801L335.334 46.3867C335.065 47.1172 334.778 47.6152 334.473 47.8809C334.168 48.1504 333.735 48.2852 333.172 48.2852Z" fill="#007AFF"/>
</svg>
