<svg width="190" height="44" viewBox="0 0 190 44" fill="none" xmlns="http://www.w3.org/2000/svg">
<path d="M12.5 33.2012C10.9889 33.2012 9.57096 32.9147 8.24609 32.3418C6.92122 31.776 5.75749 30.9919 4.75488 29.9893C3.75228 28.9867 2.96452 27.8229 2.3916 26.498C1.82585 25.1732 1.54297 23.7552 1.54297 22.2441C1.54297 20.7331 1.82585 19.3151 2.3916 17.9902C2.96452 16.6654 3.75228 15.5016 4.75488 14.499C5.75749 13.4893 6.92122 12.7015 8.24609 12.1357C9.57096 11.57 10.9889 11.2871 12.5 11.2871C14.0111 11.2871 15.429 11.57 16.7539 12.1357C18.0788 12.7015 19.2425 13.4893 20.2451 14.499C21.2477 15.5016 22.0319 16.6654 22.5977 17.9902C23.1706 19.3151 23.457 20.7331 23.457 22.2441C23.457 23.7552 23.1706 25.1732 22.5977 26.498C22.0319 27.8229 21.2477 28.9867 20.2451 29.9893C19.2425 30.9919 18.0788 31.776 16.7539 32.3418C15.429 32.9147 14.0111 33.2012 12.5 33.2012ZM12.5 31.375C13.7604 31.375 14.9421 31.1387 16.0449 30.666C17.1478 30.1934 18.1182 29.5381 18.9561 28.7002C19.7939 27.8623 20.4492 26.8919 20.9219 25.7891C21.3945 24.6862 21.6309 23.5046 21.6309 22.2441C21.6309 20.9837 21.3945 19.8021 20.9219 18.6992C20.4492 17.5892 19.7939 16.6188 18.9561 15.7881C18.1182 14.9502 17.1478 14.2949 16.0449 13.8223C14.9421 13.3496 13.7604 13.1133 12.5 13.1133C11.2396 13.1133 10.0579 13.3496 8.95508 13.8223C7.85221 14.2949 6.88184 14.9502 6.04395 15.7881C5.20605 16.6188 4.55078 17.5892 4.07812 18.6992C3.60547 19.8021 3.36914 20.9837 3.36914 22.2441C3.36914 23.5046 3.60547 24.6862 4.07812 25.7891C4.55078 26.8919 5.20605 27.8623 6.04395 28.7002C6.88184 29.5381 7.85221 30.1934 8.95508 30.666C10.0579 31.1387 11.2396 31.375 12.5 31.375ZM18.0322 23.5547C18.0322 24.4141 17.8424 25.1589 17.4629 25.7891C17.0833 26.4121 16.5605 26.8955 15.8945 27.2393C15.2357 27.5758 14.4873 27.7441 13.6494 27.7441C13.6064 27.7441 13.4668 27.7441 13.2305 27.7441C13.0013 27.7441 12.7721 27.7441 12.543 27.7441C12.321 27.7441 12.1992 27.7441 12.1777 27.7441C11.9414 27.7441 11.7445 27.6797 11.5869 27.5508C11.4294 27.4147 11.3506 27.2214 11.3506 26.9707C11.3506 26.7201 11.4294 26.5303 11.5869 26.4014C11.7445 26.2725 11.9342 26.208 12.1562 26.208C12.1706 26.208 12.2923 26.208 12.5215 26.208C12.7578 26.208 12.9941 26.208 13.2305 26.208C13.4668 26.208 13.6064 26.208 13.6494 26.208C14.4658 26.208 15.1354 25.9645 15.6582 25.4775C16.1882 24.9834 16.4531 24.3138 16.4531 23.4688C16.4531 22.638 16.1846 22.0042 15.6475 21.5674C15.1175 21.1234 14.4551 20.9014 13.6602 20.9014H10.459L9.18066 20.8584L9.81445 21.3203L11.1572 22.6094C11.3076 22.7526 11.3828 22.9388 11.3828 23.168C11.3828 23.39 11.3076 23.5762 11.1572 23.7266C11.014 23.877 10.8385 23.9521 10.6309 23.9521C10.4089 23.9521 10.2227 23.877 10.0723 23.7266L7.21484 20.7939C7.02148 20.6077 6.9248 20.3929 6.9248 20.1494C6.9248 19.8988 7.02148 19.6803 7.21484 19.4941L10.0615 16.5938C10.2119 16.4362 10.3981 16.3574 10.6201 16.3574C10.835 16.3574 11.014 16.4326 11.1572 16.583C11.3076 16.7334 11.3828 16.9196 11.3828 17.1416C11.3828 17.3636 11.304 17.5498 11.1465 17.7002L10.0293 18.7744L9.18066 19.4404L10.459 19.3975H13.6602C14.498 19.3975 15.2464 19.5658 15.9053 19.9023C16.5641 20.2318 17.0833 20.708 17.4629 21.3311C17.8424 21.9469 18.0322 22.6882 18.0322 23.5547Z" fill="#3C3C43" fill-opacity="0.3"/>
<path d="M61.5 33.2012C59.9889 33.2012 58.571 32.9147 57.2461 32.3418C55.9212 31.776 54.7575 30.9919 53.7549 29.9893C52.7523 28.9867 51.9645 27.8229 51.3916 26.498C50.8258 25.1732 50.543 23.7552 50.543 22.2441C50.543 20.7331 50.8258 19.3151 51.3916 17.9902C51.9645 16.6654 52.7523 15.5016 53.7549 14.499C54.7575 13.4893 55.9212 12.7015 57.2461 12.1357C58.571 11.57 59.9889 11.2871 61.5 11.2871C63.0111 11.2871 64.429 11.57 65.7539 12.1357C67.0788 12.7015 68.2425 13.4893 69.2451 14.499C70.2477 15.5016 71.0319 16.6654 71.5977 17.9902C72.1706 19.3151 72.457 20.7331 72.457 22.2441C72.457 23.7552 72.1706 25.1732 71.5977 26.498C71.0319 27.8229 70.2477 28.9867 69.2451 29.9893C68.2425 30.9919 67.0788 31.776 65.7539 32.3418C64.429 32.9147 63.0111 33.2012 61.5 33.2012ZM61.5 31.375C62.7604 31.375 63.9421 31.1387 65.0449 30.666C66.1478 30.1934 67.1182 29.5381 67.9561 28.7002C68.7939 27.8623 69.4492 26.8919 69.9219 25.7891C70.3945 24.6862 70.6309 23.5046 70.6309 22.2441C70.6309 20.9837 70.3945 19.8021 69.9219 18.6992C69.4492 17.5892 68.7939 16.6188 67.9561 15.7881C67.1182 14.9502 66.1478 14.2949 65.0449 13.8223C63.9421 13.3496 62.7604 13.1133 61.5 13.1133C60.2396 13.1133 59.0579 13.3496 57.9551 13.8223C56.8522 14.2949 55.8818 14.9502 55.0439 15.7881C54.2061 16.6188 53.5508 17.5892 53.0781 18.6992C52.6055 19.8021 52.3691 20.9837 52.3691 22.2441C52.3691 23.5046 52.6055 24.6862 53.0781 25.7891C53.5508 26.8919 54.2061 27.8623 55.0439 28.7002C55.8818 29.5381 56.8522 30.1934 57.9551 30.666C59.0579 31.1387 60.2396 31.375 61.5 31.375ZM55.9248 23.5547C55.9248 22.6882 56.1146 21.9469 56.4941 21.3311C56.8737 20.708 57.3929 20.2318 58.0518 19.9023C58.7106 19.5658 59.459 19.3975 60.2969 19.3975H63.498L64.7764 19.4404L63.9277 18.7744L62.8105 17.7002C62.653 17.5498 62.5742 17.3636 62.5742 17.1416C62.5742 16.9196 62.6458 16.7334 62.7891 16.583C62.9395 16.4326 63.1221 16.3574 63.3369 16.3574C63.5589 16.3574 63.7451 16.4362 63.8955 16.5938L66.7422 19.4941C66.9355 19.6803 67.0322 19.8988 67.0322 20.1494C67.0322 20.3929 66.9355 20.6077 66.7422 20.7939L63.8848 23.7266C63.7344 23.877 63.5482 23.9521 63.3262 23.9521C63.1185 23.9521 62.9395 23.877 62.7891 23.7266C62.6458 23.5762 62.5742 23.39 62.5742 23.168C62.5742 22.9388 62.6494 22.7526 62.7998 22.6094L64.1533 21.3203L64.7764 20.8584L63.498 20.9014H60.2969C59.5091 20.9014 58.8467 21.1234 58.3096 21.5674C57.7725 22.0042 57.5039 22.638 57.5039 23.4688C57.5039 24.3138 57.7689 24.9834 58.2988 25.4775C58.8288 25.9645 59.4984 26.208 60.3076 26.208C60.3506 26.208 60.4902 26.208 60.7266 26.208C60.9701 26.208 61.2064 26.208 61.4355 26.208C61.6647 26.208 61.7865 26.208 61.8008 26.208C62.0299 26.208 62.2197 26.2725 62.3701 26.4014C62.5277 26.5303 62.6064 26.7201 62.6064 26.9707C62.6064 27.2214 62.5277 27.4147 62.3701 27.5508C62.2126 27.6797 62.0156 27.7441 61.7793 27.7441C61.7578 27.7441 61.6325 27.7441 61.4033 27.7441C61.1813 27.7441 60.9521 27.7441 60.7158 27.7441C60.4867 27.7441 60.3506 27.7441 60.3076 27.7441C59.4697 27.7441 58.7214 27.5758 58.0625 27.2393C57.4036 26.8955 56.8809 26.4121 56.4941 25.7891C56.1146 25.1589 55.9248 24.4141 55.9248 23.5547Z" fill="#3C3C43" fill-opacity="0.3"/>
<path d="M110.5 33.2012C108.989 33.2012 107.571 32.9147 106.246 32.3418C104.921 31.776 103.757 30.9919 102.755 29.9893C101.752 28.9867 100.965 27.8229 100.392 26.498C99.8258 25.1732 99.543 23.7552 99.543 22.2441C99.543 20.7331 99.8258 19.3151 100.392 17.9902C100.965 16.6654 101.752 15.5016 102.755 14.499C103.757 13.4893 104.921 12.7015 106.246 12.1357C107.571 11.57 108.989 11.2871 110.5 11.2871C112.011 11.2871 113.429 11.57 114.754 12.1357C116.079 12.7015 117.243 13.4893 118.245 14.499C119.248 15.5016 120.032 16.6654 120.598 17.9902C121.171 19.3151 121.457 20.7331 121.457 22.2441C121.457 23.7552 121.171 25.1732 120.598 26.498C120.032 27.8229 119.248 28.9867 118.245 29.9893C117.243 30.9919 116.079 31.776 114.754 32.3418C113.429 32.9147 112.011 33.2012 110.5 33.2012ZM110.5 31.375C111.76 31.375 112.942 31.1387 114.045 30.666C115.148 30.1934 116.118 29.5381 116.956 28.7002C117.794 27.8623 118.449 26.8919 118.922 25.7891C119.395 24.6862 119.631 23.5046 119.631 22.2441C119.631 20.9837 119.395 19.8021 118.922 18.6992C118.449 17.5892 117.794 16.6188 116.956 15.7881C116.118 14.9502 115.148 14.2949 114.045 13.8223C112.942 13.3496 111.76 13.1133 110.5 13.1133C109.24 13.1133 108.058 13.3496 106.955 13.8223C105.852 14.2949 104.882 14.9502 104.044 15.7881C103.206 16.6188 102.551 17.5892 102.078 18.6992C101.605 19.8021 101.369 20.9837 101.369 22.2441C101.369 23.5046 101.605 24.6862 102.078 25.7891C102.551 26.8919 103.206 27.8623 104.044 28.7002C104.882 29.5381 105.852 30.1934 106.955 30.666C108.058 31.1387 109.24 31.375 110.5 31.375ZM105.483 23.791C105.054 23.791 104.685 23.6406 104.377 23.3398C104.076 23.0319 103.926 22.6631 103.926 22.2334C103.926 21.8037 104.076 21.4385 104.377 21.1377C104.685 20.8298 105.054 20.6758 105.483 20.6758C105.906 20.6758 106.271 20.8298 106.579 21.1377C106.887 21.4385 107.041 21.8037 107.041 22.2334C107.041 22.6631 106.887 23.0319 106.579 23.3398C106.278 23.6406 105.913 23.791 105.483 23.791ZM110.489 23.791C110.067 23.791 109.701 23.6406 109.394 23.3398C109.093 23.0319 108.942 22.6631 108.942 22.2334C108.942 21.8037 109.093 21.4385 109.394 21.1377C109.701 20.8298 110.067 20.6758 110.489 20.6758C110.919 20.6758 111.284 20.8298 111.585 21.1377C111.893 21.4385 112.047 21.8037 112.047 22.2334C112.047 22.6631 111.893 23.0319 111.585 23.3398C111.284 23.6406 110.919 23.791 110.489 23.791ZM115.506 23.791C115.076 23.791 114.707 23.6406 114.399 23.3398C114.099 23.0319 113.948 22.6631 113.948 22.2334C113.948 21.8037 114.099 21.4385 114.399 21.1377C114.707 20.8298 115.076 20.6758 115.506 20.6758C115.936 20.6758 116.301 20.8298 116.602 21.1377C116.91 21.4385 117.063 21.8037 117.063 22.2334C117.063 22.6631 116.91 23.0319 116.602 23.3398C116.301 23.6406 115.936 23.791 115.506 23.791Z" fill="#E4AF0A"/>
<path d="M148.941 28V16.022H153.432C154.621 16.022 155.634 16.2544 156.47 16.7192C157.311 17.1841 157.953 17.8592 158.395 18.7446C158.844 19.63 159.068 20.6981 159.068 21.9487V21.9653C159.068 23.2437 158.846 24.3338 158.404 25.2358C157.961 26.1323 157.319 26.8185 156.478 27.2944C155.642 27.7648 154.627 28 153.432 28H148.941ZM151.083 26.1987H153.149C153.941 26.1987 154.616 26.0355 155.175 25.709C155.734 25.3825 156.157 24.9066 156.445 24.2812C156.738 23.6559 156.885 22.895 156.885 21.9985V21.9819C156.885 21.1076 156.735 20.3605 156.437 19.7407C156.143 19.1154 155.717 18.6395 155.158 18.313C154.599 17.9865 153.93 17.8232 153.149 17.8232H151.083V26.1987ZM164.797 28.1826C163.895 28.1826 163.118 27.9945 162.465 27.6182C161.812 27.2363 161.308 26.694 160.954 25.9912C160.605 25.2884 160.431 24.4473 160.431 23.4678V23.4512C160.431 22.4827 160.608 21.6471 160.962 20.9443C161.316 20.236 161.817 19.6937 162.465 19.3174C163.118 18.9411 163.895 18.7529 164.797 18.7529C165.699 18.7529 166.474 18.9411 167.121 19.3174C167.774 19.6937 168.278 20.2332 168.632 20.936C168.986 21.6388 169.163 22.4772 169.163 23.4512V23.4678C169.163 24.4473 168.986 25.2884 168.632 25.9912C168.283 26.694 167.783 27.2363 167.13 27.6182C166.482 27.9945 165.705 28.1826 164.797 28.1826ZM164.797 26.5059C165.273 26.5059 165.677 26.3869 166.009 26.1489C166.347 25.9054 166.604 25.5596 166.781 25.1113C166.958 24.6576 167.047 24.1125 167.047 23.4761V23.4595C167.047 22.8175 166.958 22.2725 166.781 21.8242C166.604 21.3704 166.347 21.0246 166.009 20.7866C165.677 20.5431 165.273 20.4214 164.797 20.4214C164.321 20.4214 163.914 20.5431 163.577 20.7866C163.239 21.0246 162.982 21.3704 162.805 21.8242C162.628 22.2725 162.539 22.8175 162.539 23.4595V23.4761C162.539 24.1125 162.628 24.6576 162.805 25.1113C162.982 25.5651 163.236 25.911 163.569 26.1489C163.906 26.3869 164.316 26.5059 164.797 26.5059ZM170.808 28V18.9272H172.875V20.3218H173.016C173.232 19.8293 173.559 19.4447 173.996 19.168C174.433 18.8913 174.978 18.7529 175.631 18.7529C176.644 18.7529 177.419 19.0462 177.955 19.6328C178.492 20.2194 178.761 21.0522 178.761 22.1313V28H176.694V22.6128C176.694 21.9045 176.544 21.3732 176.245 21.019C175.952 20.6649 175.493 20.4878 174.868 20.4878C174.458 20.4878 174.104 20.5791 173.805 20.7617C173.506 20.9443 173.277 21.2017 173.116 21.5337C172.956 21.8657 172.875 22.2586 172.875 22.7124V28H170.808ZM184.656 28.1826C183.754 28.1826 182.979 27.9917 182.332 27.6099C181.69 27.228 181.194 26.6857 180.846 25.9829C180.497 25.2801 180.323 24.4473 180.323 23.4844V23.4761C180.323 22.5243 180.494 21.6942 180.837 20.9858C181.186 20.2775 181.679 19.7297 182.315 19.3423C182.951 18.9494 183.698 18.7529 184.556 18.7529C185.419 18.7529 186.161 18.9438 186.781 19.3257C187.406 19.702 187.888 20.2305 188.225 20.9111C188.563 21.5918 188.731 22.3887 188.731 23.3018V23.9824H181.36V22.5962H187.719L186.739 23.8911V23.0693C186.739 22.4661 186.648 21.9653 186.465 21.5669C186.283 21.1685 186.028 20.8696 185.702 20.6704C185.381 20.4712 185.007 20.3716 184.581 20.3716C184.155 20.3716 183.776 20.4767 183.444 20.687C183.117 20.8918 182.857 21.1961 182.664 21.6001C182.475 21.9985 182.381 22.4883 182.381 23.0693V23.8994C182.381 24.4583 182.475 24.937 182.664 25.3354C182.852 25.7284 183.117 26.0327 183.46 26.2485C183.809 26.4588 184.221 26.564 184.697 26.564C185.068 26.564 185.386 26.5114 185.652 26.4062C185.923 26.2956 186.142 26.1655 186.308 26.0161C186.474 25.8612 186.59 25.7145 186.656 25.5762L186.681 25.5181H188.64L188.624 25.5928C188.552 25.8861 188.419 26.1849 188.225 26.4893C188.037 26.7881 187.78 27.0675 187.453 27.3276C187.132 27.5822 186.739 27.7897 186.274 27.9502C185.81 28.1051 185.27 28.1826 184.656 28.1826Z" fill="#E4AF0A"/>
</svg>
