<svg width="361" height="62" viewBox="0 0 361 62" fill="none" xmlns="http://www.w3.org/2000/svg">
<rect width="361" height="62" rx="11" fill="white"/>
<path d="M19.5273 25.1113C18.9258 25.1113 18.4082 24.9785 17.9746 24.7129C17.5449 24.4473 17.2129 24.0723 16.9785 23.5879C16.748 23.0996 16.6328 22.5254 16.6328 21.8652V21.8594C16.6328 21.207 16.748 20.6348 16.9785 20.1426C17.2129 19.6504 17.543 19.2656 17.9688 18.9883C18.3945 18.7109 18.8926 18.5723 19.4629 18.5723C20.0371 18.5723 20.5293 18.7051 20.9395 18.9707C21.3535 19.2363 21.6699 19.6074 21.8887 20.084C22.1113 20.5566 22.2227 21.1074 22.2227 21.7363V22.1348H17.1602V21.3203H21.7012L21.1973 22.0645V21.6602C21.1973 21.1641 21.123 20.7559 20.9746 20.4355C20.8262 20.1152 20.6211 19.877 20.3594 19.7207C20.0977 19.5605 19.7969 19.4805 19.457 19.4805C19.1172 19.4805 18.8125 19.5645 18.543 19.7324C18.2773 19.8965 18.0664 20.1406 17.9102 20.4648C17.7539 20.7891 17.6758 21.1875 17.6758 21.6602V22.0645C17.6758 22.5137 17.752 22.8984 17.9043 23.2188C18.0566 23.5352 18.2734 23.7793 18.5547 23.9512C18.8359 24.1191 19.168 24.2031 19.5508 24.2031C19.8359 24.2031 20.084 24.1641 20.2949 24.0859C20.5059 24.0078 20.6797 23.9082 20.8164 23.7871C20.9531 23.666 21.0488 23.543 21.1035 23.418L21.127 23.3652H22.1465L22.1348 23.4121C22.0801 23.627 21.9824 23.8359 21.8418 24.0391C21.7051 24.2383 21.5273 24.4199 21.3086 24.584C21.0898 24.7441 20.8301 24.873 20.5293 24.9707C20.2324 25.0645 19.8984 25.1113 19.5273 25.1113ZM23.3967 25V18.6836H24.4162V19.6445H24.51C24.6506 19.3047 24.8654 19.041 25.1545 18.8535C25.4475 18.666 25.801 18.5723 26.215 18.5723C26.5002 18.5723 26.7561 18.6191 26.9826 18.7129C27.2092 18.8066 27.4045 18.9375 27.5686 19.1055C27.7326 19.2695 27.8635 19.4609 27.9611 19.6797H28.0549C28.1682 19.457 28.3205 19.2637 28.5119 19.0996C28.7033 18.9316 28.924 18.8027 29.174 18.7129C29.4279 18.6191 29.6994 18.5723 29.9885 18.5723C30.4182 18.5723 30.7815 18.6523 31.0783 18.8125C31.3791 18.9727 31.6076 19.207 31.7639 19.5156C31.9201 19.8203 31.9983 20.1934 31.9983 20.6348V25H30.9787V20.8691C30.9787 20.5566 30.9299 20.2988 30.8322 20.0957C30.7385 19.8887 30.594 19.7344 30.3986 19.6328C30.2033 19.5273 29.9572 19.4746 29.6604 19.4746C29.3674 19.4746 29.1115 19.541 28.8928 19.6738C28.674 19.8066 28.5041 19.9844 28.383 20.207C28.2619 20.4258 28.2014 20.6699 28.2014 20.9395V25H27.1818V20.7109C27.1818 20.4609 27.1272 20.2441 27.0178 20.0605C26.9123 19.873 26.76 19.7285 26.5608 19.627C26.3654 19.5254 26.135 19.4746 25.8693 19.4746C25.5959 19.4746 25.3479 19.5469 25.1252 19.6914C24.9065 19.8359 24.7326 20.0312 24.6037 20.2773C24.4787 20.5195 24.4162 20.7891 24.4162 21.0859V25H23.3967ZM35.1645 25.1113C34.766 25.1113 34.4067 25.0352 34.0863 24.8828C33.7699 24.7305 33.518 24.5137 33.3305 24.2324C33.1469 23.9512 33.0551 23.6191 33.0551 23.2363V23.2246C33.0551 22.8496 33.1449 22.5293 33.3246 22.2637C33.5043 21.9941 33.766 21.7832 34.1098 21.6309C34.4535 21.4785 34.8695 21.3887 35.3578 21.3613L37.6781 21.2207V22.0352L35.4809 22.1758C35.0004 22.2031 34.6488 22.3027 34.4262 22.4746C34.2074 22.6465 34.0981 22.8887 34.0981 23.2012V23.2129C34.0981 23.5332 34.2192 23.7832 34.4613 23.9629C34.7035 24.1387 35.0082 24.2266 35.3754 24.2266C35.7231 24.2266 36.0317 24.1582 36.3012 24.0215C36.5707 23.8809 36.7817 23.6914 36.934 23.4531C37.0903 23.2148 37.1684 22.9453 37.1684 22.6445V20.6758C37.1684 20.2852 37.0492 19.9883 36.811 19.7852C36.5766 19.5781 36.2231 19.4746 35.7504 19.4746C35.3715 19.4746 35.061 19.543 34.8188 19.6797C34.5766 19.8125 34.4145 20.002 34.3324 20.248L34.3266 20.2656H33.307L33.3129 20.2305C33.3676 19.8984 33.5043 19.6094 33.7231 19.3633C33.9457 19.1133 34.2328 18.9199 34.5844 18.7832C34.936 18.6426 35.3363 18.5723 35.7856 18.5723C36.3012 18.5723 36.7367 18.6562 37.0922 18.8242C37.4516 18.9922 37.7231 19.2344 37.9067 19.5508C38.0942 19.8633 38.1879 20.2383 38.1879 20.6758V25H37.1684V24.0684H37.0746C36.9418 24.291 36.7797 24.4805 36.5883 24.6367C36.4008 24.793 36.1879 24.9121 35.9496 24.9941C35.7113 25.0723 35.4496 25.1113 35.1645 25.1113ZM39.6666 25V18.6836H40.6862V25H39.6666ZM40.1823 17.4648C39.9908 17.4648 39.8248 17.3965 39.6842 17.2598C39.5475 17.1191 39.4791 16.9531 39.4791 16.7617C39.4791 16.5664 39.5475 16.4004 39.6842 16.2637C39.8248 16.127 39.9908 16.0586 40.1823 16.0586C40.3776 16.0586 40.5436 16.127 40.6803 16.2637C40.817 16.4004 40.8854 16.5664 40.8854 16.7617C40.8854 16.9531 40.817 17.1191 40.6803 17.2598C40.5436 17.3965 40.3776 17.4648 40.1823 17.4648ZM42.2586 25V16.1758H43.2782V25H42.2586Z" fill="black"/>
<path d="M19.1309 46.1299C18.666 46.1299 18.2467 46.041 17.873 45.8633C17.5039 45.6855 17.21 45.4326 16.9912 45.1045C16.777 44.7764 16.6699 44.389 16.6699 43.9424V43.9287C16.6699 43.4912 16.7747 43.1175 16.9844 42.8076C17.194 42.4932 17.4993 42.2471 17.9004 42.0693C18.3014 41.8916 18.7868 41.7868 19.3564 41.7549L22.0635 41.5908V42.541L19.5 42.7051C18.9395 42.737 18.5293 42.8532 18.2695 43.0537C18.0143 43.2542 17.8867 43.5368 17.8867 43.9014V43.915C17.8867 44.2887 18.028 44.5804 18.3105 44.79C18.5931 44.9951 18.9486 45.0977 19.377 45.0977C19.7826 45.0977 20.1426 45.0179 20.457 44.8584C20.7715 44.6943 21.0176 44.4733 21.1953 44.1953C21.3776 43.9173 21.4688 43.6029 21.4688 43.252V40.9551C21.4688 40.4993 21.3298 40.153 21.0518 39.916C20.7783 39.6745 20.3659 39.5537 19.8145 39.5537C19.3724 39.5537 19.0101 39.6335 18.7275 39.793C18.445 39.9479 18.2559 40.1689 18.1602 40.4561L18.1533 40.4766H16.9639L16.9707 40.4355C17.0345 40.0482 17.194 39.7109 17.4492 39.4238C17.709 39.1322 18.0439 38.9066 18.4541 38.7471C18.8643 38.583 19.3314 38.501 19.8555 38.501C20.457 38.501 20.9652 38.599 21.3799 38.7949C21.7992 38.9909 22.1159 39.2734 22.3301 39.6426C22.5488 40.0072 22.6582 40.4447 22.6582 40.9551V46H21.4688V44.9131H21.3594C21.2044 45.1729 21.0153 45.3939 20.792 45.5762C20.5732 45.7585 20.3249 45.8975 20.0469 45.9932C19.7689 46.0843 19.4635 46.1299 19.1309 46.1299ZM24.424 46V38.6309H25.6135V39.7383H25.7229C25.9097 39.3464 26.1786 39.0433 26.5295 38.8291C26.8804 38.6104 27.327 38.501 27.8693 38.501C28.6988 38.501 29.3345 38.738 29.7766 39.2119C30.2232 39.6813 30.4465 40.3535 30.4465 41.2285V46H29.257V41.5156C29.257 40.8503 29.1158 40.3581 28.8332 40.0391C28.5552 39.7155 28.1223 39.5537 27.5344 39.5537C27.1425 39.5537 26.8029 39.638 26.5158 39.8066C26.2287 39.9753 26.0054 40.2145 25.8459 40.5244C25.691 40.8343 25.6135 41.2057 25.6135 41.6387V46H24.424ZM34.9125 46.1299C34.2927 46.1299 33.7504 45.9727 33.2856 45.6582C32.8207 45.3438 32.4607 44.9017 32.2055 44.332C31.9503 43.7578 31.8227 43.0879 31.8227 42.3223V42.3086C31.8227 41.5384 31.9503 40.8685 32.2055 40.2988C32.4607 39.7292 32.8184 39.2871 33.2787 38.9727C33.7436 38.6582 34.2882 38.501 34.9125 38.501C35.2498 38.501 35.5665 38.5557 35.8627 38.665C36.1635 38.7699 36.4301 38.918 36.6625 39.1094C36.8949 39.3008 37.0772 39.5286 37.2094 39.793H37.3188V35.7051H38.5082V46H37.3188V44.8242H37.2094C37.059 45.0977 36.8699 45.3324 36.642 45.5283C36.4141 45.7197 36.1544 45.8678 35.8627 45.9727C35.571 46.0775 35.2543 46.1299 34.9125 46.1299ZM35.186 45.0771C35.6326 45.0771 36.0177 44.9655 36.3412 44.7422C36.6648 44.5189 36.9132 44.2021 37.0863 43.792C37.2595 43.3773 37.3461 42.8874 37.3461 42.3223V42.3086C37.3461 41.7389 37.2595 41.249 37.0863 40.8389C36.9132 40.4287 36.6648 40.112 36.3412 39.8887C36.0177 39.6654 35.6326 39.5537 35.186 39.5537C34.7393 39.5537 34.3542 39.6654 34.0307 39.8887C33.7117 40.1074 33.4656 40.4219 33.2924 40.832C33.1238 41.2422 33.0395 41.7344 33.0395 42.3086V42.3223C33.0395 42.8919 33.1238 43.3841 33.2924 43.7988C33.4656 44.209 33.7117 44.5257 34.0307 44.749C34.3542 44.9678 34.7393 45.0771 35.186 45.0771ZM40.3834 46V38.6309H41.5729V39.7246H41.6823C41.8235 39.3372 42.0628 39.0365 42.4 38.8223C42.7373 38.6081 43.1543 38.501 43.651 38.501C43.7649 38.501 43.8766 38.5078 43.986 38.5215C44.0999 38.5306 44.1865 38.5397 44.2457 38.5488V39.7041C44.1227 39.6813 44.0019 39.6654 43.8834 39.6562C43.7695 39.6426 43.6464 39.6357 43.5143 39.6357C43.136 39.6357 42.8011 39.7109 42.5094 39.8613C42.2177 40.0117 41.9876 40.2214 41.819 40.4902C41.6549 40.7591 41.5729 41.0736 41.5729 41.4336V46H40.3834ZM48.1102 46.1299C47.4084 46.1299 46.8045 45.9749 46.2987 45.665C45.7974 45.3551 45.41 44.9176 45.1366 44.3525C44.8677 43.7829 44.7332 43.113 44.7332 42.3428V42.3359C44.7332 41.5749 44.8677 40.9072 45.1366 40.333C45.41 39.7588 45.7951 39.3099 46.2918 38.9863C46.7886 38.6628 47.3696 38.501 48.035 38.501C48.7049 38.501 49.2791 38.6559 49.7576 38.9658C50.2407 39.2757 50.6099 39.7087 50.8651 40.2646C51.1248 40.8161 51.2547 41.4587 51.2547 42.1924V42.6572H45.3485V41.707H50.6463L50.0584 42.5752V42.1035C50.0584 41.5247 49.9718 41.0485 49.7987 40.6748C49.6255 40.3011 49.3862 40.0231 49.0809 39.8408C48.7756 39.654 48.4246 39.5605 48.0282 39.5605C47.6317 39.5605 47.2762 39.6585 46.9618 39.8545C46.6519 40.0459 46.4058 40.3307 46.2235 40.709C46.0412 41.0872 45.95 41.5521 45.95 42.1035V42.5752C45.95 43.0993 46.0389 43.5482 46.2166 43.9219C46.3944 44.291 46.6473 44.5758 46.9754 44.7764C47.3035 44.9723 47.6909 45.0703 48.1375 45.0703C48.4702 45.0703 48.7596 45.0247 49.0057 44.9336C49.2518 44.8424 49.4546 44.7262 49.6141 44.585C49.7736 44.4437 49.8853 44.3001 49.9491 44.1543L49.9764 44.0928H51.1659L51.1522 44.1475C51.0884 44.3981 50.9744 44.6419 50.8104 44.8789C50.6509 45.1113 50.4435 45.3232 50.1883 45.5146C49.9331 45.7015 49.63 45.8519 49.2791 45.9658C48.9328 46.0752 48.5431 46.1299 48.1102 46.1299ZM54.1143 46L52.0498 38.6309H53.2393L54.6885 44.5234H54.7979L56.4454 38.6309H57.5733L59.2207 44.5234H59.3301L60.7793 38.6309H61.962L59.8975 46H58.7012L57.0537 40.2988H56.9444L55.3037 46H54.1143ZM66.7903 46.1299C66.4485 46.1299 66.1318 46.0775 65.8401 45.9727C65.5484 45.8678 65.2887 45.7197 65.0608 45.5283C64.8329 45.3324 64.6438 45.0977 64.4934 44.8242H64.384V46H63.1946V35.7051H64.384V39.793H64.4934C64.6301 39.5286 64.8124 39.3008 65.0403 39.1094C65.2727 38.918 65.537 38.7699 65.8333 38.665C66.134 38.5557 66.453 38.501 66.7903 38.501C67.4146 38.501 67.9569 38.6582 68.4172 38.9727C68.8821 39.2871 69.2421 39.7292 69.4973 40.2988C69.7525 40.8685 69.8801 41.5384 69.8801 42.3086V42.3223C69.8801 43.0879 69.7525 43.7578 69.4973 44.332C69.2421 44.9017 68.8821 45.3438 68.4172 45.6582C67.9569 45.9727 67.4146 46.1299 66.7903 46.1299ZM66.5168 45.0771C66.968 45.0771 67.3531 44.9678 67.6721 44.749C67.9911 44.5257 68.2349 44.209 68.4036 43.7988C68.5767 43.3841 68.6633 42.8919 68.6633 42.3223V42.3086C68.6633 41.7344 68.5767 41.2422 68.4036 40.832C68.2349 40.4219 67.9911 40.1074 67.6721 39.8887C67.3531 39.6654 66.968 39.5537 66.5168 39.5537C66.0702 39.5537 65.6851 39.6654 65.3616 39.8887C65.038 40.112 64.7896 40.4287 64.6165 40.8389C64.4433 41.249 64.3567 41.7389 64.3567 42.3086V42.3223C64.3567 42.8874 64.4433 43.3773 64.6165 43.792C64.7896 44.2021 65.038 44.5189 65.3616 44.7422C65.6851 44.9655 66.0702 45.0771 66.5168 45.0771ZM73.3413 46.1299C72.8764 46.1299 72.4572 46.041 72.0835 45.8633C71.7143 45.6855 71.4204 45.4326 71.2016 45.1045C70.9874 44.7764 70.8803 44.389 70.8803 43.9424V43.9287C70.8803 43.4912 70.9851 43.1175 71.1948 42.8076C71.4044 42.4932 71.7098 42.2471 72.1108 42.0693C72.5118 41.8916 72.9972 41.7868 73.5669 41.7549L76.2739 41.5908V42.541L73.7104 42.7051C73.1499 42.737 72.7397 42.8532 72.4799 43.0537C72.2247 43.2542 72.0971 43.5368 72.0971 43.9014V43.915C72.0971 44.2887 72.2384 44.5804 72.521 44.79C72.8035 44.9951 73.159 45.0977 73.5874 45.0977C73.993 45.0977 74.353 45.0179 74.6674 44.8584C74.9819 44.6943 75.228 44.4733 75.4057 44.1953C75.588 43.9173 75.6792 43.6029 75.6792 43.252V40.9551C75.6792 40.4993 75.5402 40.153 75.2622 39.916C74.9887 39.6745 74.5763 39.5537 74.0249 39.5537C73.5828 39.5537 73.2205 39.6335 72.9379 39.793C72.6554 39.9479 72.4663 40.1689 72.3706 40.4561L72.3637 40.4766H71.1743L71.1811 40.4355C71.2449 40.0482 71.4044 39.7109 71.6596 39.4238C71.9194 39.1322 72.2544 38.9066 72.6645 38.7471C73.0747 38.583 73.5418 38.501 74.0659 38.501C74.6674 38.501 75.1756 38.599 75.5903 38.7949C76.0096 38.9909 76.3263 39.2734 76.5405 39.6426C76.7592 40.0072 76.8686 40.4447 76.8686 40.9551V46H75.6792V44.9131H75.5698C75.4148 45.1729 75.2257 45.3939 75.0024 45.5762C74.7836 45.7585 74.5353 45.8975 74.2573 45.9932C73.9793 46.0843 73.6739 46.1299 73.3413 46.1299ZM81.1022 46.1299C80.5462 46.1299 80.0791 46.0251 79.7008 45.8154C79.3226 45.6012 79.0378 45.2913 78.8464 44.8857C78.6595 44.4756 78.5661 43.9811 78.5661 43.4023V38.6309H79.7555V43.1152C79.7555 43.776 79.8831 44.2682 80.1383 44.5918C80.3981 44.9154 80.8219 45.0771 81.4098 45.0771C81.7334 45.0771 82.0182 45.0293 82.2643 44.9336C82.515 44.8379 82.7246 44.7012 82.8932 44.5234C83.0618 44.3411 83.1872 44.1224 83.2692 43.8672C83.3558 43.6074 83.3991 43.3158 83.3991 42.9922V38.6309H84.5885V46H83.3991V44.8994H83.2897C83.1712 45.1592 83.0094 45.3825 82.8044 45.5693C82.5993 45.7516 82.3532 45.8906 82.0661 45.9863C81.7835 46.082 81.4622 46.1299 81.1022 46.1299ZM89.41 46.1299C88.7082 46.1299 88.1044 45.9749 87.5985 45.665C87.0972 45.3551 86.7098 44.9176 86.4364 44.3525C86.1675 43.7829 86.0331 43.113 86.0331 42.3428V42.3359C86.0331 41.5749 86.1675 40.9072 86.4364 40.333C86.7098 39.7588 87.0949 39.3099 87.5917 38.9863C88.0884 38.6628 88.6695 38.501 89.3348 38.501C90.0048 38.501 90.579 38.6559 91.0575 38.9658C91.5406 39.2757 91.9097 39.7087 92.1649 40.2646C92.4247 40.8161 92.5546 41.4587 92.5546 42.1924V42.6572H86.6483V41.707H91.9462L91.3583 42.5752V42.1035C91.3583 41.5247 91.2717 41.0485 91.0985 40.6748C90.9253 40.3011 90.6861 40.0231 90.3807 39.8408C90.0754 39.654 89.7245 39.5605 89.328 39.5605C88.9315 39.5605 88.576 39.6585 88.2616 39.8545C87.9517 40.0459 87.7056 40.3307 87.5233 40.709C87.341 41.0872 87.2499 41.5521 87.2499 42.1035V42.5752C87.2499 43.0993 87.3387 43.5482 87.5165 43.9219C87.6942 44.291 87.9471 44.5758 88.2753 44.7764C88.6034 44.9723 88.9908 45.0703 89.4374 45.0703C89.7701 45.0703 90.0594 45.0247 90.3055 44.9336C90.5516 44.8424 90.7544 44.7262 90.9139 44.585C91.0734 44.4437 91.1851 44.3001 91.2489 44.1543L91.2762 44.0928H92.4657L92.452 44.1475C92.3882 44.3981 92.2743 44.6419 92.1102 44.8789C91.9507 45.1113 91.7434 45.3232 91.4882 45.5146C91.233 45.7015 90.9299 45.8519 90.579 45.9658C90.2326 46.0752 89.843 46.1299 89.41 46.1299ZM93.9923 46V38.6309H95.1817V39.7246H95.2911C95.4324 39.3372 95.6716 39.0365 96.0089 38.8223C96.3461 38.6081 96.7631 38.501 97.2598 38.501C97.3738 38.501 97.4854 38.5078 97.5948 38.5215C97.7087 38.5306 97.7953 38.5397 97.8546 38.5488V39.7041C97.7315 39.6813 97.6108 39.6654 97.4923 39.6562C97.3783 39.6426 97.2553 39.6357 97.1231 39.6357C96.7449 39.6357 96.4099 39.7109 96.1182 39.8613C95.8266 40.0117 95.5964 40.2214 95.4278 40.4902C95.2637 40.7591 95.1817 41.0736 95.1817 41.4336V46H93.9923ZM102.266 46.1641C101.587 46.1641 100.994 46.0479 100.489 45.8154C99.9827 45.583 99.5817 45.264 99.2854 44.8584C98.9938 44.4528 98.8252 43.9902 98.7796 43.4707L98.7727 43.3887H99.9554L99.9622 43.457C99.9941 43.7806 100.108 44.0654 100.304 44.3115C100.505 44.5576 100.771 44.7513 101.104 44.8926C101.441 45.0293 101.828 45.0977 102.266 45.0977C102.699 45.0977 103.077 45.0225 103.401 44.8721C103.729 44.7217 103.984 44.5143 104.166 44.25C104.349 43.9811 104.44 43.6735 104.44 43.3271V43.3135C104.44 42.7074 104.237 42.2425 103.831 41.9189C103.43 41.5908 102.883 41.4268 102.191 41.4268H100.953V40.3877H102.136C102.528 40.3877 102.874 40.3148 103.175 40.1689C103.476 40.0186 103.711 39.8158 103.879 39.5605C104.048 39.3008 104.132 39.0068 104.132 38.6787V38.665C104.132 38.3187 104.059 38.0247 103.913 37.7832C103.768 37.5417 103.553 37.3571 103.271 37.2295C102.993 37.1019 102.653 37.0381 102.252 37.0381C101.865 37.0381 101.519 37.1042 101.213 37.2363C100.912 37.3639 100.671 37.5485 100.489 37.79C100.306 38.0316 100.197 38.3187 100.16 38.6514L100.154 38.7197H98.971L98.9778 38.6514C99.0325 38.1136 99.2011 37.6442 99.4837 37.2432C99.7708 36.8421 100.149 36.5299 100.618 36.3066C101.092 36.0833 101.637 35.9717 102.252 35.9717C102.881 35.9717 103.428 36.0811 103.893 36.2998C104.362 36.514 104.725 36.8125 104.98 37.1953C105.24 37.5736 105.369 38.0133 105.369 38.5146V38.5283C105.369 38.9339 105.281 39.2939 105.103 39.6084C104.925 39.9229 104.679 40.1849 104.365 40.3945C104.05 40.6042 103.688 40.7523 103.278 40.8389V40.8662C103.998 40.9255 104.579 41.1693 105.021 41.5977C105.467 42.0215 105.691 42.5843 105.691 43.2861V43.2998C105.691 43.8467 105.543 44.3366 105.246 44.7695C104.95 45.2025 104.545 45.5443 104.03 45.7949C103.515 46.041 102.927 46.1641 102.266 46.1641ZM110.765 46.2324C110.314 46.2324 109.867 46.1458 109.425 45.9727C108.988 45.7995 108.589 45.5192 108.229 45.1318C107.874 44.7445 107.589 44.234 107.375 43.6006C107.16 42.9626 107.053 42.1787 107.053 41.249V41.2354C107.053 40.1143 107.204 39.1572 107.504 38.3643C107.805 37.5667 108.238 36.9583 108.803 36.5391C109.368 36.1152 110.05 35.9033 110.847 35.9033C111.399 35.9033 111.895 36.0059 112.337 36.2109C112.784 36.4115 113.155 36.694 113.452 37.0586C113.752 37.4186 113.958 37.8424 114.067 38.3301L114.087 38.4189H112.85L112.823 38.3438C112.722 38.0658 112.579 37.8288 112.392 37.6328C112.21 37.4323 111.986 37.2773 111.722 37.168C111.462 37.0586 111.166 37.0039 110.833 37.0039C110.236 37.0039 109.751 37.1794 109.377 37.5303C109.004 37.8766 108.726 38.3392 108.543 38.918C108.366 39.4922 108.263 40.1234 108.236 40.8115C108.231 40.8708 108.229 40.9323 108.229 40.9961C108.229 41.0553 108.229 41.1169 108.229 41.1807L108.523 42.8213C108.523 43.2542 108.621 43.6462 108.817 43.9971C109.017 44.348 109.286 44.6283 109.624 44.8379C109.961 45.043 110.337 45.1455 110.751 45.1455C111.166 45.1455 111.542 45.0452 111.879 44.8447C112.217 44.6396 112.483 44.3639 112.679 44.0176C112.88 43.6712 112.98 43.2861 112.98 42.8623V42.8486C112.98 42.4111 112.884 42.0238 112.693 41.6865C112.506 41.3447 112.246 41.0781 111.914 40.8867C111.581 40.6908 111.2 40.5928 110.772 40.5928C110.348 40.5928 109.965 40.6885 109.624 40.8799C109.286 41.0713 109.017 41.3356 108.817 41.6729C108.621 42.0055 108.523 42.3861 108.523 42.8145V42.8213H108.12V41.0439H108.359C108.482 40.7751 108.664 40.5244 108.906 40.292C109.147 40.0596 109.444 39.8727 109.794 39.7314C110.145 39.5902 110.542 39.5195 110.984 39.5195C111.604 39.5195 112.157 39.6631 112.645 39.9502C113.133 40.2373 113.515 40.6292 113.793 41.126C114.076 41.6227 114.217 42.1878 114.217 42.8213V42.835C114.217 43.4912 114.067 44.0745 113.766 44.585C113.47 45.0954 113.062 45.4987 112.542 45.7949C112.023 46.0866 111.431 46.2324 110.765 46.2324ZM118.198 46V37.5029H118.089L115.58 39.3213V38.0225L118.205 36.1357H119.428V46H118.198ZM127.511 47.5996C126.631 47.5996 125.836 47.4674 125.125 47.2031C124.414 46.9388 123.808 46.556 123.307 46.0547C122.805 45.5579 122.42 44.9587 122.151 44.2568C121.882 43.555 121.748 42.7689 121.748 41.8984V41.8848C121.748 41.0417 121.882 40.2715 122.151 39.5742C122.425 38.877 122.812 38.2754 123.313 37.7695C123.815 37.2637 124.409 36.874 125.098 36.6006C125.79 36.3271 126.556 36.1904 127.394 36.1904C128.475 36.1904 129.425 36.4046 130.245 36.833C131.07 37.2568 131.715 37.847 132.18 38.6035C132.644 39.3555 132.877 40.2259 132.877 41.2148V41.2285C132.877 41.9668 132.772 42.6094 132.562 43.1562C132.353 43.6986 132.054 44.1201 131.667 44.4209C131.284 44.7171 130.831 44.8652 130.307 44.8652C129.915 44.8652 129.58 44.765 129.302 44.5645C129.028 44.3594 128.864 44.0905 128.809 43.7578L128.803 43.7168H128.693C128.547 44.0632 128.326 44.332 128.03 44.5234C127.734 44.7103 127.385 44.8037 126.984 44.8037C126.51 44.8037 126.093 44.6829 125.733 44.4414C125.378 44.1953 125.1 43.8558 124.899 43.4229C124.703 42.9899 124.605 42.484 124.605 41.9053V41.8916C124.605 41.3402 124.706 40.8525 124.906 40.4287C125.111 40.0049 125.392 39.6745 125.747 39.4375C126.107 39.196 126.519 39.0752 126.984 39.0752C127.344 39.0752 127.668 39.1618 127.955 39.335C128.242 39.5081 128.452 39.7428 128.584 40.0391H128.693V39.2051H129.726V43.2178C129.726 43.4548 129.792 43.6416 129.924 43.7783C130.06 43.9105 130.252 43.9766 130.498 43.9766C130.785 43.9766 131.033 43.8626 131.243 43.6348C131.457 43.4069 131.621 43.0856 131.735 42.6709C131.854 42.2562 131.913 41.7708 131.913 41.2148V41.2012C131.913 40.3809 131.719 39.6585 131.332 39.0342C130.945 38.4098 130.405 37.9245 129.712 37.5781C129.019 37.2272 128.217 37.0518 127.306 37.0518C126.636 37.0518 126.02 37.1725 125.46 37.4141C124.904 37.651 124.419 37.9883 124.004 38.4258C123.594 38.8633 123.275 39.3783 123.047 39.9707C122.823 40.5632 122.712 41.2148 122.712 41.9258V41.9395C122.712 42.9102 122.91 43.7555 123.307 44.4756C123.703 45.1911 124.261 45.7448 124.981 46.1367C125.701 46.5332 126.549 46.7314 127.524 46.7314C127.839 46.7314 128.142 46.7178 128.434 46.6904C128.73 46.6631 128.999 46.6243 129.24 46.5742C129.482 46.5241 129.673 46.4671 129.814 46.4033V47.2646C129.509 47.3695 129.156 47.4515 128.755 47.5107C128.358 47.57 127.944 47.5996 127.511 47.5996ZM127.142 43.8398C127.611 43.8398 127.985 43.6667 128.263 43.3203C128.541 42.974 128.68 42.5114 128.68 41.9326V41.9189C128.68 41.3356 128.541 40.873 128.263 40.5312C127.989 40.1895 127.62 40.0186 127.155 40.0186C126.85 40.0186 126.588 40.0938 126.369 40.2441C126.155 40.3945 125.989 40.6133 125.87 40.9004C125.756 41.1829 125.699 41.5225 125.699 41.9189V41.9326C125.699 42.3245 125.756 42.6641 125.87 42.9512C125.989 43.2383 126.155 43.4593 126.369 43.6143C126.588 43.7646 126.845 43.8398 127.142 43.8398ZM137.357 48.5977C136.764 48.5977 136.247 48.5133 135.805 48.3447C135.363 48.1807 135.01 47.946 134.745 47.6406C134.485 47.3398 134.324 46.9889 134.26 46.5879L134.274 46.5811H135.504L135.511 46.5879C135.575 46.8659 135.766 47.0938 136.085 47.2715C136.404 47.4538 136.828 47.5449 137.357 47.5449C138.017 47.5449 138.532 47.3945 138.901 47.0938C139.275 46.7975 139.462 46.3783 139.462 45.8359V44.3457H139.353C139.198 44.6146 139.004 44.8447 138.772 45.0361C138.539 45.2275 138.277 45.3734 137.985 45.4736C137.694 45.5693 137.379 45.6172 137.042 45.6172C136.409 45.6172 135.859 45.4668 135.395 45.166C134.934 44.8607 134.579 44.4414 134.328 43.9082C134.078 43.375 133.952 42.7643 133.952 42.0762V42.0625C133.952 41.3743 134.078 40.7637 134.328 40.2305C134.583 39.6927 134.943 39.2712 135.408 38.9658C135.873 38.6559 136.427 38.501 137.069 38.501C137.416 38.501 137.735 38.5557 138.026 38.665C138.318 38.7744 138.576 38.9294 138.799 39.1299C139.027 39.3304 139.216 39.5697 139.366 39.8477H139.448V38.6309H140.638V45.8975C140.638 46.4443 140.503 46.9206 140.234 47.3262C139.97 47.7318 139.592 48.0439 139.1 48.2627C138.608 48.486 138.026 48.5977 137.357 48.5977ZM137.302 44.5645C137.758 44.5645 138.147 44.4596 138.471 44.25C138.799 44.0358 139.05 43.7419 139.223 43.3682C139.401 42.9945 139.489 42.5638 139.489 42.0762V42.0625C139.489 41.5749 139.401 41.1419 139.223 40.7637C139.05 40.3854 138.799 40.0892 138.471 39.875C138.147 39.6608 137.758 39.5537 137.302 39.5537C136.846 39.5537 136.459 39.6608 136.14 39.875C135.825 40.0892 135.584 40.3854 135.415 40.7637C135.251 41.1419 135.169 41.5749 135.169 42.0625V42.0762C135.169 42.5638 135.251 42.9945 135.415 43.3682C135.584 43.7419 135.825 44.0358 136.14 44.25C136.459 44.4596 136.846 44.5645 137.302 44.5645ZM142.445 46V38.6309H143.634V39.752H143.743C143.908 39.3555 144.158 39.0479 144.495 38.8291C144.837 38.6104 145.25 38.501 145.733 38.501C146.065 38.501 146.364 38.5557 146.628 38.665C146.893 38.7744 147.12 38.9271 147.312 39.123C147.503 39.3145 147.656 39.5378 147.77 39.793H147.879C148.011 39.5332 148.189 39.3076 148.412 39.1162C148.636 38.9202 148.893 38.7699 149.185 38.665C149.481 38.5557 149.798 38.501 150.135 38.501C150.636 38.501 151.06 38.5944 151.407 38.7812C151.757 38.9681 152.024 39.2415 152.206 39.6016C152.389 39.957 152.48 40.3923 152.48 40.9072V46H151.29V41.1807C151.29 40.8161 151.233 40.5153 151.119 40.2783C151.01 40.0368 150.841 39.8568 150.614 39.7383C150.386 39.6152 150.099 39.5537 149.752 39.5537C149.41 39.5537 149.112 39.6312 148.857 39.7861C148.602 39.9411 148.403 40.1484 148.262 40.4082C148.121 40.6634 148.05 40.9482 148.05 41.2627V46H146.861V40.9961C146.861 40.7044 146.797 40.4515 146.669 40.2373C146.546 40.0186 146.368 39.8499 146.136 39.7314C145.908 39.613 145.639 39.5537 145.329 39.5537C145.01 39.5537 144.721 39.638 144.461 39.8066C144.206 39.9753 144.003 40.2031 143.853 40.4902C143.707 40.7728 143.634 41.0872 143.634 41.4336V46H142.445ZM156.242 46.1299C155.777 46.1299 155.358 46.041 154.984 45.8633C154.615 45.6855 154.321 45.4326 154.102 45.1045C153.888 44.7764 153.781 44.389 153.781 43.9424V43.9287C153.781 43.4912 153.886 43.1175 154.095 42.8076C154.305 42.4932 154.61 42.2471 155.011 42.0693C155.412 41.8916 155.898 41.7868 156.467 41.7549L159.174 41.5908V42.541L156.611 42.7051C156.05 42.737 155.64 42.8532 155.38 43.0537C155.125 43.2542 154.998 43.5368 154.998 43.9014V43.915C154.998 44.2887 155.139 44.5804 155.421 44.79C155.704 44.9951 156.059 45.0977 156.488 45.0977C156.893 45.0977 157.253 45.0179 157.568 44.8584C157.882 44.6943 158.128 44.4733 158.306 44.1953C158.488 43.9173 158.58 43.6029 158.58 43.252V40.9551C158.58 40.4993 158.441 40.153 158.163 39.916C157.889 39.6745 157.477 39.5537 156.925 39.5537C156.483 39.5537 156.121 39.6335 155.838 39.793C155.556 39.9479 155.367 40.1689 155.271 40.4561L155.264 40.4766H154.075L154.082 40.4355C154.145 40.0482 154.305 39.7109 154.56 39.4238C154.82 39.1322 155.155 38.9066 155.565 38.7471C155.975 38.583 156.442 38.501 156.966 38.501C157.568 38.501 158.076 38.599 158.491 38.7949C158.91 38.9909 159.227 39.2734 159.441 39.6426C159.66 40.0072 159.769 40.4447 159.769 40.9551V46H158.58V44.9131H158.47C158.315 45.1729 158.126 45.3939 157.903 45.5762C157.684 45.7585 157.436 45.8975 157.158 45.9932C156.88 46.0843 156.574 46.1299 156.242 46.1299ZM161.562 46V38.6309H162.752V46H161.562ZM162.164 37.209C161.941 37.209 161.747 37.1292 161.583 36.9697C161.423 36.8057 161.344 36.612 161.344 36.3887C161.344 36.1608 161.423 35.9671 161.583 35.8076C161.747 35.6481 161.941 35.5684 162.164 35.5684C162.392 35.5684 162.585 35.6481 162.745 35.8076C162.904 35.9671 162.984 36.1608 162.984 36.3887C162.984 36.612 162.904 36.8057 162.745 36.9697C162.585 37.1292 162.392 37.209 162.164 37.209ZM164.654 46V35.7051H165.844V46H164.654ZM168.69 46.0684C168.448 46.0684 168.238 45.9818 168.061 45.8086C167.888 45.6309 167.801 45.4212 167.801 45.1797C167.801 44.9336 167.888 44.724 168.061 44.5508C168.238 44.3776 168.448 44.291 168.69 44.291C168.936 44.291 169.145 44.3776 169.319 44.5508C169.492 44.724 169.578 44.9336 169.578 45.1797C169.578 45.4212 169.492 45.6309 169.319 45.8086C169.145 45.9818 168.936 46.0684 168.69 46.0684ZM174.208 46.1299C173.52 46.1299 172.923 45.9727 172.417 45.6582C171.911 45.3438 171.52 44.8994 171.242 44.3252C170.964 43.751 170.825 43.0742 170.825 42.2949V42.2812C170.825 41.5156 170.961 40.8503 171.235 40.2852C171.513 39.7201 171.905 39.2826 172.411 38.9727C172.916 38.6582 173.513 38.501 174.202 38.501C174.799 38.501 175.314 38.6058 175.746 38.8154C176.179 39.0251 176.526 39.3076 176.786 39.6631C177.045 40.014 177.212 40.4082 177.285 40.8457L177.291 40.8867H176.109L176.102 40.8662C176.011 40.5016 175.803 40.1917 175.48 39.9365C175.156 39.6813 174.73 39.5537 174.202 39.5537C173.759 39.5537 173.377 39.6654 173.053 39.8887C172.73 40.112 172.479 40.4287 172.301 40.8389C172.128 41.2445 172.041 41.7253 172.041 42.2812V42.2949C172.041 42.86 172.13 43.3522 172.308 43.7715C172.486 44.1862 172.736 44.5075 173.06 44.7354C173.384 44.9632 173.764 45.0771 174.202 45.0771C174.698 45.0771 175.104 44.9701 175.418 44.7559C175.733 44.5417 175.958 44.2295 176.095 43.8193L176.109 43.7783L177.285 43.7715L177.271 43.8467C177.171 44.2887 176.993 44.6829 176.738 45.0293C176.482 45.3711 176.145 45.64 175.726 45.8359C175.307 46.0319 174.801 46.1299 174.208 46.1299ZM181.648 46.1299C180.951 46.1299 180.347 45.9772 179.837 45.6719C179.331 45.362 178.939 44.9222 178.661 44.3525C178.387 43.7829 178.251 43.1061 178.251 42.3223V42.3086C178.251 41.5202 178.387 40.8411 178.661 40.2715C178.939 39.7018 179.331 39.2643 179.837 38.959C180.347 38.6536 180.951 38.501 181.648 38.501C182.35 38.501 182.954 38.6536 183.46 38.959C183.965 39.2643 184.355 39.7018 184.628 40.2715C184.906 40.8411 185.045 41.5202 185.045 42.3086V42.3223C185.045 43.1061 184.906 43.7829 184.628 44.3525C184.355 44.9222 183.965 45.362 183.46 45.6719C182.954 45.9772 182.35 46.1299 181.648 46.1299ZM181.648 45.0771C182.113 45.0771 182.507 44.9678 182.831 44.749C183.154 44.5303 183.4 44.2158 183.569 43.8057C183.742 43.3955 183.829 42.901 183.829 42.3223V42.3086C183.829 41.7253 183.742 41.2285 183.569 40.8184C183.4 40.4082 183.154 40.096 182.831 39.8818C182.507 39.6631 182.113 39.5537 181.648 39.5537C181.183 39.5537 180.789 39.6631 180.465 39.8818C180.142 40.096 179.893 40.4082 179.72 40.8184C179.552 41.2285 179.467 41.7253 179.467 42.3086V42.3223C179.467 42.901 179.552 43.3955 179.72 43.8057C179.893 44.2158 180.142 44.5303 180.465 44.749C180.789 44.9678 181.183 45.0771 181.648 45.0771ZM186.483 46V38.6309H187.673V39.752H187.782C187.946 39.3555 188.197 39.0479 188.534 38.8291C188.876 38.6104 189.288 38.501 189.771 38.501C190.104 38.501 190.402 38.5557 190.667 38.665C190.931 38.7744 191.159 38.9271 191.35 39.123C191.542 39.3145 191.694 39.5378 191.808 39.793H191.918C192.05 39.5332 192.228 39.3076 192.451 39.1162C192.674 38.9202 192.932 38.7699 193.223 38.665C193.52 38.5557 193.836 38.501 194.174 38.501C194.675 38.501 195.099 38.5944 195.445 38.7812C195.796 38.9681 196.063 39.2415 196.245 39.6016C196.427 39.957 196.518 40.3923 196.518 40.9072V46H195.329V41.1807C195.329 40.8161 195.272 40.5153 195.158 40.2783C195.049 40.0368 194.88 39.8568 194.652 39.7383C194.424 39.6152 194.137 39.5537 193.791 39.5537C193.449 39.5537 193.151 39.6312 192.895 39.7861C192.64 39.9411 192.442 40.1484 192.301 40.4082C192.159 40.6634 192.089 40.9482 192.089 41.2627V46H190.899V40.9961C190.899 40.7044 190.835 40.4515 190.708 40.2373C190.585 40.0186 190.407 39.8499 190.175 39.7314C189.947 39.613 189.678 39.5537 189.368 39.5537C189.049 39.5537 188.76 39.638 188.5 39.8066C188.245 39.9753 188.042 40.2031 187.891 40.4902C187.746 40.7728 187.673 41.0872 187.673 41.4336V46H186.483Z" fill="#007AFF"/>
</svg>
