<svg width="82" height="44" viewBox="0 0 82 44" fill="none" xmlns="http://www.w3.org/2000/svg">
<path d="M13.2891 22.2441C13.2962 22.0221 13.3392 21.818 13.418 21.6318C13.5039 21.4456 13.6328 21.2666 13.8047 21.0947L22.0762 13.0059C22.3483 12.7337 22.6813 12.5977 23.0752 12.5977C23.3473 12.5977 23.5908 12.6621 23.8057 12.791C24.0277 12.9199 24.2031 13.0954 24.332 13.3174C24.4681 13.5322 24.5361 13.7721 24.5361 14.0371C24.5361 14.4382 24.3857 14.7891 24.085 15.0898L16.7266 22.2441L24.085 29.3984C24.3857 29.7064 24.5361 30.0573 24.5361 30.4512C24.5361 30.7233 24.4681 30.9668 24.332 31.1816C24.2031 31.3965 24.0277 31.5684 23.8057 31.6973C23.5908 31.8262 23.3473 31.8906 23.0752 31.8906C22.6813 31.8906 22.3483 31.7546 22.0762 31.4824L13.8047 23.3936C13.6257 23.2217 13.4932 23.0426 13.4072 22.8564C13.3285 22.6631 13.2891 22.459 13.2891 22.2441Z" fill="#007BFE"/>
<path d="M34.3779 28V19.0518H35.8223V28H34.3779ZM35.1084 17.3252C34.8372 17.3252 34.6021 17.2284 34.4028 17.0347C34.2091 16.8354 34.1123 16.6003 34.1123 16.3291C34.1123 16.0524 34.2091 15.8172 34.4028 15.6235C34.6021 15.4299 34.8372 15.333 35.1084 15.333C35.3851 15.333 35.6203 15.4299 35.814 15.6235C36.0076 15.8172 36.1045 16.0524 36.1045 16.3291C36.1045 16.6003 36.0076 16.8354 35.814 17.0347C35.6203 17.2284 35.3851 17.3252 35.1084 17.3252ZM43.1203 28.2822C42.0357 28.2822 41.0977 28.0277 40.3063 27.5186C39.515 27.0094 38.9035 26.2873 38.4719 25.3521C38.0457 24.4168 37.8327 23.3073 37.8327 22.0234V22.0068C37.8327 20.7174 38.0457 19.6051 38.4719 18.6699C38.9035 17.7347 39.5122 17.0125 40.298 16.5034C41.0894 15.9943 42.0274 15.7397 43.112 15.7397C43.9531 15.7397 44.7168 15.9058 45.403 16.2378C46.0947 16.5643 46.6647 17.0208 47.113 17.6074C47.5612 18.1885 47.8434 18.8608 47.9596 19.6245L47.9513 19.6411H46.4489L46.4406 19.6245C46.3078 19.1099 46.0837 18.6672 45.7682 18.2964C45.4528 17.9201 45.0682 17.6296 44.6144 17.4248C44.1662 17.2201 43.6654 17.1177 43.112 17.1177C42.3483 17.1177 41.6843 17.3169 41.1198 17.7153C40.5609 18.1138 40.1292 18.6782 39.8249 19.4087C39.5205 20.1392 39.3683 21.0052 39.3683 22.0068V22.0234C39.3683 23.0195 39.5205 23.8828 39.8249 24.6133C40.1292 25.3438 40.5609 25.9082 41.1198 26.3066C41.6843 26.7051 42.3511 26.9043 43.1203 26.9043C43.6792 26.9043 44.1856 26.8158 44.6393 26.6387C45.0931 26.4561 45.4749 26.1987 45.7848 25.8667C46.0947 25.5291 46.3106 25.1307 46.4323 24.6714L46.4489 24.6548H47.9596V24.6714C47.8268 25.4019 47.5391 26.0382 47.0964 26.5806C46.6537 27.1174 46.092 27.5352 45.4113 27.834C44.7362 28.1328 43.9725 28.2822 43.1203 28.2822ZM49.9369 28V15.499H51.3812V28H49.9369ZM57.4009 28.1577C56.5542 28.1577 55.821 27.9723 55.2012 27.6016C54.587 27.2253 54.111 26.6912 53.7735 25.9995C53.4414 25.3078 53.2754 24.486 53.2754 23.5342V23.5176C53.2754 22.5602 53.4414 21.7357 53.7735 21.0439C54.111 20.3522 54.587 19.821 55.2012 19.4502C55.821 19.0794 56.5542 18.894 57.4009 18.894C58.2531 18.894 58.9864 19.0794 59.6006 19.4502C60.2149 19.821 60.688 20.3522 61.0201 21.0439C61.3576 21.7357 61.5264 22.5602 61.5264 23.5176V23.5342C61.5264 24.486 61.3576 25.3078 61.0201 25.9995C60.688 26.6912 60.2149 27.2253 59.6006 27.6016C58.9864 27.9723 58.2531 28.1577 57.4009 28.1577ZM57.4009 26.8794C57.9654 26.8794 58.444 26.7466 58.837 26.481C59.2299 26.2153 59.5287 25.8335 59.7334 25.3354C59.9437 24.8374 60.0489 24.237 60.0489 23.5342V23.5176C60.0489 22.8092 59.9437 22.2061 59.7334 21.708C59.5287 21.21 59.2299 20.8309 58.837 20.5708C58.444 20.3052 57.9654 20.1724 57.4009 20.1724C56.8365 20.1724 56.3578 20.3052 55.9649 20.5708C55.572 20.8309 55.2704 21.21 55.0601 21.708C54.8553 22.2061 54.753 22.8092 54.753 23.5176V23.5342C54.753 24.237 54.8553 24.8374 55.0601 25.3354C55.2704 25.8335 55.572 26.2153 55.9649 26.481C56.3578 26.7466 56.8365 26.8794 57.4009 26.8794ZM66.3342 28.1577C65.6591 28.1577 65.0918 28.0304 64.6325 27.7759C64.1732 27.5158 63.8274 27.1395 63.5949 26.647C63.3681 26.1489 63.2546 25.5485 63.2546 24.8457V19.0518H64.6989V24.4971C64.6989 25.2995 64.8539 25.8971 65.1638 26.29C65.4792 26.6829 65.9939 26.8794 66.7077 26.8794C67.1006 26.8794 67.4465 26.8213 67.7453 26.7051C68.0497 26.5889 68.3043 26.4229 68.509 26.207C68.7138 25.9857 68.8659 25.7201 68.9655 25.4102C69.0707 25.0947 69.1233 24.7406 69.1233 24.3477V19.0518H70.5676V28H69.1233V26.6636H68.9904C68.8466 26.979 68.6501 27.2502 68.4011 27.4771C68.1521 27.6984 67.8532 27.8672 67.5046 27.9834C67.1615 28.0996 66.7714 28.1577 66.3342 28.1577ZM76.1391 28.1577C75.3865 28.1577 74.7279 27.9668 74.1635 27.585C73.599 27.2031 73.1618 26.6663 72.852 25.9746C72.5421 25.2773 72.3871 24.4639 72.3871 23.5342V23.5176C72.3871 22.5824 72.5421 21.7689 72.852 21.0771C73.1618 20.3854 73.5963 19.8486 74.1552 19.4668C74.7196 19.085 75.3809 18.894 76.1391 18.894C76.5486 18.894 76.9332 18.9604 77.2929 19.0933C77.6581 19.2205 77.9818 19.4004 78.2641 19.6328C78.5463 19.8652 78.7676 20.1419 78.9281 20.4629H79.0609V15.499H80.5053V28H79.0609V26.5723H78.9281C78.7455 26.9043 78.5159 27.1893 78.2392 27.4272C77.9625 27.6597 77.647 27.8395 77.2929 27.9668C76.9387 28.0941 76.5541 28.1577 76.1391 28.1577ZM76.4711 26.8794C77.0134 26.8794 77.481 26.7438 77.8739 26.4727C78.2668 26.2015 78.5684 25.8169 78.7787 25.3188C78.989 24.8153 79.0941 24.2204 79.0941 23.5342V23.5176C79.0941 22.8258 78.989 22.231 78.7787 21.7329C78.5684 21.2349 78.2668 20.8503 77.8739 20.5791C77.481 20.3079 77.0134 20.1724 76.4711 20.1724C75.9288 20.1724 75.4612 20.3079 75.0683 20.5791C74.6809 20.8447 74.3821 21.2266 74.1718 21.7246C73.967 22.2227 73.8646 22.8203 73.8646 23.5176V23.5342C73.8646 24.2259 73.967 24.8236 74.1718 25.3271C74.3821 25.8252 74.6809 26.2098 75.0683 26.481C75.4612 26.7466 75.9288 26.8794 76.4711 26.8794Z" fill="#007BFE"/>
</svg>
