<svg width="361" height="121" viewBox="0 0 361 121" fill="none" xmlns="http://www.w3.org/2000/svg">
<rect width="361" height="121" rx="11" fill="white"/>
<path d="M16.9492 25V18.6836H17.9688V19.6445H18.0625C18.2031 19.3047 18.418 19.041 18.707 18.8535C19 18.666 19.3535 18.5723 19.7676 18.5723C20.0527 18.5723 20.3086 18.6191 20.5352 18.7129C20.7617 18.8066 20.957 18.9375 21.1211 19.1055C21.2852 19.2695 21.416 19.4609 21.5137 19.6797H21.6074C21.7207 19.457 21.873 19.2637 22.0645 19.0996C22.2559 18.9316 22.4766 18.8027 22.7266 18.7129C22.9805 18.6191 23.252 18.5723 23.541 18.5723C23.9707 18.5723 24.334 18.6523 24.6309 18.8125C24.9316 18.9727 25.1602 19.207 25.3164 19.5156C25.4727 19.8203 25.5508 20.1934 25.5508 20.6348V25H24.5312V20.8691C24.5312 20.5566 24.4824 20.2988 24.3848 20.0957C24.291 19.8887 24.1465 19.7344 23.9512 19.6328C23.7559 19.5273 23.5098 19.4746 23.2129 19.4746C22.9199 19.4746 22.6641 19.541 22.4453 19.6738C22.2266 19.8066 22.0566 19.9844 21.9355 20.207C21.8145 20.4258 21.7539 20.6699 21.7539 20.9395V25H20.7344V20.7109C20.7344 20.4609 20.6797 20.2441 20.5703 20.0605C20.4648 19.873 20.3125 19.7285 20.1133 19.627C19.918 19.5254 19.6875 19.4746 19.4219 19.4746C19.1484 19.4746 18.9004 19.5469 18.6777 19.6914C18.459 19.8359 18.2852 20.0312 18.1562 20.2773C18.0312 20.5195 17.9688 20.7891 17.9688 21.0859V25H16.9492ZM29.5783 25.1113C28.9807 25.1113 28.4631 24.9805 28.0256 24.7188C27.592 24.4531 27.2561 24.0762 27.0178 23.5879C26.7834 23.0996 26.6662 22.5195 26.6662 21.8477V21.8359C26.6662 21.1602 26.7834 20.5781 27.0178 20.0898C27.2561 19.6016 27.592 19.2266 28.0256 18.9648C28.4631 18.7031 28.9807 18.5723 29.5783 18.5723C30.1799 18.5723 30.6975 18.7031 31.1311 18.9648C31.5647 19.2266 31.8986 19.6016 32.133 20.0898C32.3713 20.5781 32.4904 21.1602 32.4904 21.8359V21.8477C32.4904 22.5195 32.3713 23.0996 32.133 23.5879C31.8986 24.0762 31.5647 24.4531 31.1311 24.7188C30.6975 24.9805 30.1799 25.1113 29.5783 25.1113ZM29.5783 24.209C29.9768 24.209 30.3147 24.1152 30.592 23.9277C30.8693 23.7402 31.0803 23.4707 31.2248 23.1191C31.3733 22.7676 31.4475 22.3438 31.4475 21.8477V21.8359C31.4475 21.3359 31.3733 20.9102 31.2248 20.5586C31.0803 20.207 30.8693 19.9395 30.592 19.7559C30.3147 19.5684 29.9768 19.4746 29.5783 19.4746C29.1799 19.4746 28.842 19.5684 28.5647 19.7559C28.2873 19.9395 28.0744 20.207 27.926 20.5586C27.7815 20.9102 27.7092 21.3359 27.7092 21.8359V21.8477C27.7092 22.3438 27.7815 22.7676 27.926 23.1191C28.0744 23.4707 28.2873 23.7402 28.5647 23.9277C28.842 24.1152 29.1799 24.209 29.5783 24.209ZM36.8051 25.1113C36.5121 25.1113 36.2406 25.0664 35.9906 24.9766C35.7406 24.8867 35.518 24.7598 35.3227 24.5957C35.1274 24.4277 34.9653 24.2266 34.8363 23.9922H34.7426V25H33.7231V16.1758H34.7426V19.6797H34.8363C34.9535 19.4531 35.1098 19.2578 35.3051 19.0938C35.5043 18.9297 35.7309 18.8027 35.9848 18.7129C36.2426 18.6191 36.516 18.5723 36.8051 18.5723C37.3403 18.5723 37.8051 18.707 38.1996 18.9766C38.5981 19.2461 38.9067 19.625 39.1254 20.1133C39.3442 20.6016 39.4535 21.1758 39.4535 21.8359V21.8477C39.4535 22.5039 39.3442 23.0781 39.1254 23.5703C38.9067 24.0586 38.5981 24.4375 38.1996 24.707C37.8051 24.9766 37.3403 25.1113 36.8051 25.1113ZM36.5707 24.209C36.9574 24.209 37.2875 24.1152 37.561 23.9277C37.8344 23.7363 38.0434 23.4648 38.1879 23.1133C38.3363 22.7578 38.4106 22.3359 38.4106 21.8477V21.8359C38.4106 21.3438 38.3363 20.9219 38.1879 20.5703C38.0434 20.2188 37.8344 19.9492 37.561 19.7617C37.2875 19.5703 36.9574 19.4746 36.5707 19.4746C36.1879 19.4746 35.8578 19.5703 35.5805 19.7617C35.3031 19.9531 35.0903 20.2246 34.9418 20.5762C34.7934 20.9277 34.7192 21.3477 34.7192 21.8359V21.8477C34.7192 22.332 34.7934 22.752 34.9418 23.1074C35.0903 23.459 35.3031 23.7305 35.5805 23.9219C35.8578 24.1133 36.1879 24.209 36.5707 24.209ZM40.651 25V18.6836H41.6705V25H40.651ZM41.1666 17.4648C40.9752 17.4648 40.8092 17.3965 40.6686 17.2598C40.5319 17.1191 40.4635 16.9531 40.4635 16.7617C40.4635 16.5664 40.5319 16.4004 40.6686 16.2637C40.8092 16.127 40.9752 16.0586 41.1666 16.0586C41.3619 16.0586 41.528 16.127 41.6647 16.2637C41.8014 16.4004 41.8698 16.5664 41.8698 16.7617C41.8698 16.9531 41.8014 17.1191 41.6647 17.2598C41.528 17.3965 41.3619 17.4648 41.1666 17.4648ZM43.243 25V16.1758H44.2625V25H43.243ZM48.3897 25.1113C47.7881 25.1113 47.2705 24.9785 46.837 24.7129C46.4073 24.4473 46.0752 24.0723 45.8409 23.5879C45.6104 23.0996 45.4952 22.5254 45.4952 21.8652V21.8594C45.4952 21.207 45.6104 20.6348 45.8409 20.1426C46.0752 19.6504 46.4053 19.2656 46.8311 18.9883C47.2569 18.7109 47.7549 18.5723 48.3252 18.5723C48.8995 18.5723 49.3916 18.7051 49.8018 18.9707C50.2159 19.2363 50.5323 19.6074 50.751 20.084C50.9737 20.5566 51.085 21.1074 51.085 21.7363V22.1348H46.0225V21.3203H50.5635L50.0596 22.0645V21.6602C50.0596 21.1641 49.9854 20.7559 49.837 20.4355C49.6885 20.1152 49.4834 19.877 49.2217 19.7207C48.96 19.5605 48.6592 19.4805 48.3194 19.4805C47.9795 19.4805 47.6748 19.5645 47.4053 19.7324C47.1397 19.8965 46.9287 20.1406 46.7725 20.4648C46.6162 20.7891 46.5381 21.1875 46.5381 21.6602V22.0645C46.5381 22.5137 46.6143 22.8984 46.7666 23.2188C46.919 23.5352 47.1358 23.7793 47.417 23.9512C47.6983 24.1191 48.0303 24.2031 48.4131 24.2031C48.6983 24.2031 48.9463 24.1641 49.1573 24.0859C49.3682 24.0078 49.542 23.9082 49.6787 23.7871C49.8155 23.666 49.9112 23.543 49.9659 23.418L49.9893 23.3652H51.0088L50.9971 23.4121C50.9424 23.627 50.8448 23.8359 50.7041 24.0391C50.5674 24.2383 50.3897 24.4199 50.1709 24.584C49.9522 24.7441 49.6924 24.873 49.3916 24.9707C49.0948 25.0645 48.7608 25.1113 48.3897 25.1113Z" fill="black"/>
<path d="M17.0078 84V75.1758H18.0273V78.6328H18.1211C18.2812 78.2969 18.5117 78.0371 18.8125 77.8535C19.1133 77.666 19.4961 77.5723 19.9609 77.5723C20.4336 77.5723 20.834 77.6641 21.1621 77.8477C21.4902 78.0273 21.7402 78.291 21.9121 78.6387C22.084 78.9863 22.1699 79.4102 22.1699 79.9102V84H21.1504V80.1562C21.1504 79.5859 21.0293 79.1641 20.7871 78.8906C20.5488 78.6133 20.1777 78.4746 19.6738 78.4746C19.3379 78.4746 19.0469 78.5469 18.8008 78.6914C18.5547 78.8359 18.3633 79.041 18.2266 79.3066C18.0938 79.5723 18.0273 79.8906 18.0273 80.2617V84H17.0078ZM26.2033 84.1113C25.6057 84.1113 25.0881 83.9805 24.6506 83.7188C24.217 83.4531 23.8811 83.0762 23.6428 82.5879C23.4084 82.0996 23.2912 81.5195 23.2912 80.8477V80.8359C23.2912 80.1602 23.4084 79.5781 23.6428 79.0898C23.8811 78.6016 24.217 78.2266 24.6506 77.9648C25.0881 77.7031 25.6057 77.5723 26.2033 77.5723C26.8049 77.5723 27.3225 77.7031 27.7561 77.9648C28.1897 78.2266 28.5236 78.6016 28.758 79.0898C28.9963 79.5781 29.1154 80.1602 29.1154 80.8359V80.8477C29.1154 81.5195 28.9963 82.0996 28.758 82.5879C28.5236 83.0762 28.1897 83.4531 27.7561 83.7188C27.3225 83.9805 26.8049 84.1113 26.2033 84.1113ZM26.2033 83.209C26.6018 83.209 26.9397 83.1152 27.217 82.9277C27.4943 82.7402 27.7053 82.4707 27.8498 82.1191C27.9983 81.7676 28.0725 81.3438 28.0725 80.8477V80.8359C28.0725 80.3359 27.9983 79.9102 27.8498 79.5586C27.7053 79.207 27.4943 78.9395 27.217 78.7559C26.9397 78.5684 26.6018 78.4746 26.2033 78.4746C25.8049 78.4746 25.467 78.5684 25.1897 78.7559C24.9123 78.9395 24.6994 79.207 24.551 79.5586C24.4065 79.9102 24.3342 80.3359 24.3342 80.8359V80.8477C24.3342 81.3438 24.4065 81.7676 24.551 82.1191C24.6994 82.4707 24.9123 82.7402 25.1897 82.9277C25.467 83.1152 25.8049 83.209 26.2033 83.209ZM30.2895 84V77.6836H31.309V78.6445H31.4028C31.5434 78.3047 31.7582 78.041 32.0473 77.8535C32.3403 77.666 32.6938 77.5723 33.1078 77.5723C33.393 77.5723 33.6488 77.6191 33.8754 77.7129C34.102 77.8066 34.2973 77.9375 34.4613 78.1055C34.6254 78.2695 34.7563 78.4609 34.8539 78.6797H34.9477C35.061 78.457 35.2133 78.2637 35.4047 78.0996C35.5961 77.9316 35.8168 77.8027 36.0668 77.7129C36.3207 77.6191 36.5922 77.5723 36.8813 77.5723C37.311 77.5723 37.6742 77.6523 37.9711 77.8125C38.2719 77.9727 38.5004 78.207 38.6567 78.5156C38.8129 78.8203 38.891 79.1934 38.891 79.6348V84H37.8715V79.8691C37.8715 79.5566 37.8227 79.2988 37.725 79.0957C37.6313 78.8887 37.4867 78.7344 37.2914 78.6328C37.0961 78.5273 36.85 78.4746 36.5531 78.4746C36.2602 78.4746 36.0043 78.541 35.7856 78.6738C35.5668 78.8066 35.3969 78.9844 35.2758 79.207C35.1547 79.4258 35.0942 79.6699 35.0942 79.9395V84H34.0746V79.7109C34.0746 79.4609 34.0199 79.2441 33.9106 79.0605C33.8051 78.873 33.6528 78.7285 33.4535 78.627C33.2582 78.5254 33.0278 78.4746 32.7621 78.4746C32.4887 78.4746 32.2406 78.5469 32.018 78.6914C31.7992 78.8359 31.6254 79.0312 31.4965 79.2773C31.3715 79.5195 31.309 79.7891 31.309 80.0859V84H30.2895ZM42.901 84.1113C42.2994 84.1113 41.7819 83.9785 41.3483 83.7129C40.9186 83.4473 40.5865 83.0723 40.3522 82.5879C40.1217 82.0996 40.0065 81.5254 40.0065 80.8652V80.8594C40.0065 80.207 40.1217 79.6348 40.3522 79.1426C40.5865 78.6504 40.9166 78.2656 41.3424 77.9883C41.7682 77.7109 42.2662 77.5723 42.8365 77.5723C43.4108 77.5723 43.903 77.7051 44.3131 77.9707C44.7272 78.2363 45.0436 78.6074 45.2623 79.084C45.485 79.5566 45.5963 80.1074 45.5963 80.7363V81.1348H40.5338V80.3203H45.0748L44.5709 81.0645V80.6602C44.5709 80.1641 44.4967 79.7559 44.3483 79.4355C44.1998 79.1152 43.9948 78.877 43.733 78.7207C43.4713 78.5605 43.1705 78.4805 42.8307 78.4805C42.4908 78.4805 42.1862 78.5645 41.9166 78.7324C41.651 78.8965 41.4401 79.1406 41.2838 79.4648C41.1276 79.7891 41.0494 80.1875 41.0494 80.6602V81.0645C41.0494 81.5137 41.1256 81.8984 41.278 82.2188C41.4303 82.5352 41.6471 82.7793 41.9283 82.9512C42.2096 83.1191 42.5416 83.2031 42.9244 83.2031C43.2096 83.2031 43.4576 83.1641 43.6686 83.0859C43.8795 83.0078 44.0533 82.9082 44.1901 82.7871C44.3268 82.666 44.4225 82.543 44.4772 82.418L44.5006 82.3652H45.5201L45.5084 82.4121C45.4537 82.627 45.3561 82.8359 45.2155 83.0391C45.0787 83.2383 44.901 83.4199 44.6823 83.584C44.4635 83.7441 44.2037 83.873 43.903 83.9707C43.6061 84.0645 43.2721 84.1113 42.901 84.1113Z" fill="black"/>
<path d="M19.5957 48.4609C19.1536 47.873 18.7891 47.2487 18.502 46.5879C18.2148 45.9271 18.0007 45.223 17.8594 44.4756C17.7227 43.7282 17.6543 42.9307 17.6543 42.083C17.6543 41.2354 17.7227 40.4401 17.8594 39.6973C17.9961 38.9499 18.208 38.2458 18.4951 37.585C18.7822 36.9196 19.1491 36.293 19.5957 35.7051H20.5938C20.3477 36.0195 20.1175 36.416 19.9033 36.8945C19.6937 37.373 19.5114 37.9017 19.3564 38.4805C19.2015 39.0547 19.0807 39.6517 18.9941 40.2715C18.9076 40.8867 18.8643 41.4906 18.8643 42.083C18.8643 42.68 18.9076 43.2884 18.9941 43.9082C19.0807 44.5234 19.2015 45.1204 19.3564 45.6992C19.5114 46.2734 19.6937 46.7975 19.9033 47.2715C20.1175 47.75 20.3477 48.1465 20.5938 48.4609H19.5957ZM24.9162 46.1299C24.2144 46.1299 23.6106 45.9749 23.1047 45.665C22.6034 45.3551 22.216 44.9176 21.9426 44.3525C21.6737 43.7829 21.5393 43.113 21.5393 42.3428V42.3359C21.5393 41.5749 21.6737 40.9072 21.9426 40.333C22.216 39.7588 22.6011 39.3099 23.0979 38.9863C23.5946 38.6628 24.1757 38.501 24.841 38.501C25.5109 38.501 26.0852 38.6559 26.5637 38.9658C27.0468 39.2757 27.4159 39.7087 27.6711 40.2646C27.9309 40.8161 28.0608 41.4587 28.0608 42.1924V42.6572H22.1545V41.707H27.4524L26.8645 42.5752V42.1035C26.8645 41.5247 26.7779 41.0485 26.6047 40.6748C26.4315 40.3011 26.1923 40.0231 25.8869 39.8408C25.5816 39.654 25.2307 39.5605 24.8342 39.5605C24.4377 39.5605 24.0822 39.6585 23.7678 39.8545C23.4579 40.0459 23.2118 40.3307 23.0295 40.709C22.8472 41.0872 22.7561 41.5521 22.7561 42.1035V42.5752C22.7561 43.0993 22.8449 43.5482 23.0227 43.9219C23.2004 44.291 23.4533 44.5758 23.7815 44.7764C24.1096 44.9723 24.4969 45.0703 24.9436 45.0703C25.2762 45.0703 25.5656 45.0247 25.8117 44.9336C26.0578 44.8424 26.2606 44.7262 26.4201 44.585C26.5796 44.4437 26.6913 44.3001 26.7551 44.1543L26.7824 44.0928H27.9719L27.9582 44.1475C27.8944 44.3981 27.7805 44.6419 27.6164 44.8789C27.4569 45.1113 27.2496 45.3232 26.9943 45.5146C26.7391 45.7015 26.4361 45.8519 26.0852 45.9658C25.7388 46.0752 25.3492 46.1299 24.9162 46.1299ZM29.4985 46V38.6309H30.6879V39.752H30.7973C30.9613 39.3555 31.212 39.0479 31.5492 38.8291C31.891 38.6104 32.3035 38.501 32.7865 38.501C33.1192 38.501 33.4177 38.5557 33.682 38.665C33.9464 38.7744 34.1742 38.9271 34.3656 39.123C34.557 39.3145 34.7097 39.5378 34.8236 39.793H34.933C35.0652 39.5332 35.2429 39.3076 35.4662 39.1162C35.6895 38.9202 35.947 38.7699 36.2387 38.665C36.5349 38.5557 36.8516 38.501 37.1889 38.501C37.6902 38.501 38.114 38.5944 38.4604 38.7812C38.8113 38.9681 39.0779 39.2415 39.2602 39.6016C39.4425 39.957 39.5336 40.3923 39.5336 40.9072V46H38.3442V41.1807C38.3442 40.8161 38.2872 40.5153 38.1733 40.2783C38.0639 40.0368 37.8953 39.8568 37.6674 39.7383C37.4395 39.6152 37.1524 39.5537 36.8061 39.5537C36.4643 39.5537 36.1658 39.6312 35.9106 39.7861C35.6554 39.9411 35.4571 40.1484 35.3158 40.4082C35.1746 40.6634 35.1039 40.9482 35.1039 41.2627V46H33.9145V40.9961C33.9145 40.7044 33.8507 40.4515 33.7231 40.2373C33.6 40.0186 33.4223 39.8499 33.1899 39.7314C32.962 39.613 32.6931 39.5537 32.3832 39.5537C32.0642 39.5537 31.7748 39.638 31.5151 39.8066C31.2598 39.9753 31.057 40.2031 30.9067 40.4902C30.7608 40.7728 30.6879 41.0872 30.6879 41.4336V46H29.4985ZM43.2955 46.1299C42.8307 46.1299 42.4114 46.041 42.0377 45.8633C41.6686 45.6855 41.3746 45.4326 41.1559 45.1045C40.9417 44.7764 40.8346 44.389 40.8346 43.9424V43.9287C40.8346 43.4912 40.9394 43.1175 41.149 42.8076C41.3587 42.4932 41.664 42.2471 42.0651 42.0693C42.4661 41.8916 42.9515 41.7868 43.5211 41.7549L46.2281 41.5908V42.541L43.6647 42.7051C43.1041 42.737 42.694 42.8532 42.4342 43.0537C42.179 43.2542 42.0514 43.5368 42.0514 43.9014V43.915C42.0514 44.2887 42.1927 44.5804 42.4752 44.79C42.7578 44.9951 43.1132 45.0977 43.5416 45.0977C43.9472 45.0977 44.3073 45.0179 44.6217 44.8584C44.9362 44.6943 45.1823 44.4733 45.36 44.1953C45.5423 43.9173 45.6334 43.6029 45.6334 43.252V40.9551C45.6334 40.4993 45.4944 40.153 45.2164 39.916C44.943 39.6745 44.5306 39.5537 43.9791 39.5537C43.5371 39.5537 43.1748 39.6335 42.8922 39.793C42.6097 39.9479 42.4205 40.1689 42.3248 40.4561L42.318 40.4766H41.1285L41.1354 40.4355C41.1992 40.0482 41.3587 39.7109 41.6139 39.4238C41.8737 39.1322 42.2086 38.9066 42.6188 38.7471C43.0289 38.583 43.4961 38.501 44.0201 38.501C44.6217 38.501 45.1298 38.599 45.5446 38.7949C45.9638 38.9909 46.2806 39.2734 46.4948 39.6426C46.7135 40.0072 46.8229 40.4447 46.8229 40.9551V46H45.6334V44.9131H45.524C45.3691 45.1729 45.18 45.3939 44.9567 45.5762C44.7379 45.7585 44.4895 45.8975 44.2115 45.9932C43.9336 46.0843 43.6282 46.1299 43.2955 46.1299ZM48.616 46V38.6309H49.8055V46H48.616ZM49.2176 37.209C48.9943 37.209 48.8006 37.1292 48.6366 36.9697C48.477 36.8057 48.3973 36.612 48.3973 36.3887C48.3973 36.1608 48.477 35.9671 48.6366 35.8076C48.8006 35.6481 48.9943 35.5684 49.2176 35.5684C49.4455 35.5684 49.6392 35.6481 49.7987 35.8076C49.9582 35.9671 50.0379 36.1608 50.0379 36.3887C50.0379 36.612 49.9582 36.8057 49.7987 36.9697C49.6392 37.1292 49.4455 37.209 49.2176 37.209ZM51.708 46V35.7051H52.8975V46H51.708ZM55.4153 48.4609H54.4172C54.6633 48.1465 54.8912 47.75 55.1008 47.2715C55.315 46.7975 55.4996 46.2734 55.6545 45.6992C55.8095 45.1204 55.9303 44.5234 56.0168 43.9082C56.1034 43.2884 56.1467 42.68 56.1467 42.083C56.1467 41.4906 56.1034 40.8867 56.0168 40.2715C55.9303 39.6517 55.8095 39.0547 55.6545 38.4805C55.4996 37.9017 55.315 37.373 55.1008 36.8945C54.8912 36.416 54.6633 36.0195 54.4172 35.7051H55.4153C55.8619 36.293 56.2288 36.9196 56.5159 37.585C56.803 38.2458 57.0149 38.9499 57.1516 39.6973C57.2883 40.4401 57.3567 41.2354 57.3567 42.083C57.3567 42.9307 57.2861 43.7282 57.1448 44.4756C57.0081 45.223 56.7961 45.9271 56.509 46.5879C56.2265 47.2487 55.8619 47.873 55.4153 48.4609ZM63.2399 46V38.6309H64.4294V39.752H64.5387C64.7028 39.3555 64.9534 39.0479 65.2907 38.8291C65.6325 38.6104 66.0449 38.501 66.528 38.501C66.8607 38.501 67.1592 38.5557 67.4235 38.665C67.6878 38.7744 67.9157 38.9271 68.1071 39.123C68.2985 39.3145 68.4512 39.5378 68.5651 39.793H68.6745C68.8066 39.5332 68.9844 39.3076 69.2077 39.1162C69.431 38.9202 69.6885 38.7699 69.9801 38.665C70.2764 38.5557 70.5931 38.501 70.9303 38.501C71.4316 38.501 71.8555 38.5944 72.2018 38.7812C72.5527 38.9681 72.8193 39.2415 73.0016 39.6016C73.1839 39.957 73.2751 40.3923 73.2751 40.9072V46H72.0856V41.1807C72.0856 40.8161 72.0286 40.5153 71.9147 40.2783C71.8053 40.0368 71.6367 39.8568 71.4089 39.7383C71.181 39.6152 70.8939 39.5537 70.5475 39.5537C70.2057 39.5537 69.9072 39.6312 69.652 39.7861C69.3968 39.9411 69.1986 40.1484 69.0573 40.4082C68.916 40.6634 68.8454 40.9482 68.8454 41.2627V46H67.6559V40.9961C67.6559 40.7044 67.5921 40.4515 67.4645 40.2373C67.3415 40.0186 67.1637 39.8499 66.9313 39.7314C66.7034 39.613 66.4346 39.5537 66.1247 39.5537C65.8057 39.5537 65.5163 39.638 65.2565 39.8066C65.0013 39.9753 64.7985 40.2031 64.6481 40.4902C64.5023 40.7728 64.4294 41.0872 64.4294 41.4336V46H63.2399ZM78.0214 46.1299C77.3195 46.1299 76.7157 45.9749 76.2098 45.665C75.7085 45.3551 75.3212 44.9176 75.0477 44.3525C74.7788 43.7829 74.6444 43.113 74.6444 42.3428V42.3359C74.6444 41.5749 74.7788 40.9072 75.0477 40.333C75.3212 39.7588 75.7063 39.3099 76.203 38.9863C76.6997 38.6628 77.2808 38.501 77.9462 38.501C78.6161 38.501 79.1903 38.6559 79.6688 38.9658C80.1519 39.2757 80.521 39.7087 80.7762 40.2646C81.036 40.8161 81.1659 41.4587 81.1659 42.1924V42.6572H75.2596V41.707H80.5575L79.9696 42.5752V42.1035C79.9696 41.5247 79.883 41.0485 79.7098 40.6748C79.5367 40.3011 79.2974 40.0231 78.9921 39.8408C78.6867 39.654 78.3358 39.5605 77.9393 39.5605C77.5428 39.5605 77.1874 39.6585 76.8729 39.8545C76.563 40.0459 76.3169 40.3307 76.1346 40.709C75.9523 41.0872 75.8612 41.5521 75.8612 42.1035V42.5752C75.8612 43.0993 75.9501 43.5482 76.1278 43.9219C76.3055 44.291 76.5585 44.5758 76.8866 44.7764C77.2147 44.9723 77.6021 45.0703 78.0487 45.0703C78.3814 45.0703 78.6708 45.0247 78.9169 44.9336C79.163 44.8424 79.3658 44.7262 79.5253 44.585C79.6848 44.4437 79.7964 44.3001 79.8602 44.1543L79.8876 44.0928H81.077L81.0634 44.1475C80.9995 44.3981 80.8856 44.6419 80.7216 44.8789C80.562 45.1113 80.3547 45.3232 80.0995 45.5146C79.8443 45.7015 79.5412 45.8519 79.1903 45.9658C78.8439 46.0752 78.4543 46.1299 78.0214 46.1299ZM82.5011 42.582V41.4746H87.0948V42.582H82.5011ZM89.0179 46V39.6152H87.7942V38.6309H89.0179V37.8105C89.0179 37.3184 89.0976 36.9128 89.2571 36.5938C89.4212 36.2702 89.6627 36.0309 89.9817 35.876C90.3007 35.7165 90.6927 35.6367 91.1575 35.6367C91.3033 35.6367 91.4401 35.6436 91.5677 35.6572C91.6998 35.6663 91.8274 35.6823 91.9505 35.7051V36.6553C91.8776 36.6416 91.7933 36.6325 91.6975 36.6279C91.6018 36.6234 91.5016 36.6211 91.3968 36.6211C90.9729 36.6211 90.6676 36.7236 90.4808 36.9287C90.2985 37.1338 90.2073 37.4391 90.2073 37.8447V38.6309H91.8821V39.6152H90.2073V46H89.0179ZM95.9175 46.1299C95.2202 46.1299 94.6164 45.9772 94.106 45.6719C93.6001 45.362 93.2082 44.9222 92.9302 44.3525C92.6567 43.7829 92.52 43.1061 92.52 42.3223V42.3086C92.52 41.5202 92.6567 40.8411 92.9302 40.2715C93.2082 39.7018 93.6001 39.2643 94.106 38.959C94.6164 38.6536 95.2202 38.501 95.9175 38.501C96.6193 38.501 97.2231 38.6536 97.729 38.959C98.2349 39.2643 98.6245 39.7018 98.8979 40.2715C99.1759 40.8411 99.3149 41.5202 99.3149 42.3086V42.3223C99.3149 43.1061 99.1759 43.7829 98.8979 44.3525C98.6245 44.9222 98.2349 45.362 97.729 45.6719C97.2231 45.9772 96.6193 46.1299 95.9175 46.1299ZM95.9175 45.0771C96.3823 45.0771 96.7765 44.9678 97.1001 44.749C97.4237 44.5303 97.6698 44.2158 97.8384 43.8057C98.0116 43.3955 98.0981 42.901 98.0981 42.3223V42.3086C98.0981 41.7253 98.0116 41.2285 97.8384 40.8184C97.6698 40.4082 97.4237 40.096 97.1001 39.8818C96.7765 39.6631 96.3823 39.5537 95.9175 39.5537C95.4526 39.5537 95.0584 39.6631 94.7349 39.8818C94.4113 40.096 94.1629 40.4082 93.9897 40.8184C93.8211 41.2285 93.7368 41.7253 93.7368 42.3086V42.3223C93.7368 42.901 93.8211 43.3955 93.9897 43.8057C94.1629 44.2158 94.4113 44.5303 94.7349 44.749C95.0584 44.9678 95.4526 45.0771 95.9175 45.0771ZM100.753 46V38.6309H101.942V39.7246H102.051C102.193 39.3372 102.432 39.0365 102.769 38.8223C103.106 38.6081 103.523 38.501 104.02 38.501C104.134 38.501 104.246 38.5078 104.355 38.5215C104.469 38.5306 104.556 38.5397 104.615 38.5488V39.7041C104.492 39.6813 104.371 39.6654 104.253 39.6562C104.139 39.6426 104.016 39.6357 103.883 39.6357C103.505 39.6357 103.17 39.7109 102.879 39.8613C102.587 40.0117 102.357 40.2214 102.188 40.4902C102.024 40.7591 101.942 41.0736 101.942 41.4336V46H100.753ZM105.027 42.582V41.4746H109.621V42.582H105.027ZM113.67 46.0547C112.914 46.0547 112.364 45.902 112.023 45.5967C111.685 45.2913 111.517 44.7878 111.517 44.0859V39.6152H110.355V38.6309H111.517V36.7236H112.747V38.6309H114.36V39.6152H112.747V43.7852C112.747 44.2181 112.829 44.5303 112.993 44.7217C113.157 44.9085 113.431 45.002 113.814 45.002C113.918 45.002 114.007 44.9997 114.08 44.9951C114.158 44.9906 114.251 44.9837 114.36 44.9746V45.9863C114.247 46.0046 114.133 46.0205 114.019 46.0342C113.905 46.0479 113.789 46.0547 113.67 46.0547ZM115.798 46V35.7051H116.988V39.7383H117.097C117.284 39.3464 117.553 39.0433 117.904 38.8291C118.255 38.6104 118.701 38.501 119.243 38.501C119.795 38.501 120.262 38.6081 120.645 38.8223C121.028 39.0319 121.319 39.3395 121.52 39.7451C121.72 40.1507 121.821 40.6452 121.821 41.2285V46H120.631V41.5156C120.631 40.8503 120.49 40.3581 120.207 40.0391C119.929 39.7155 119.496 39.5537 118.909 39.5537C118.517 39.5537 118.177 39.638 117.89 39.8066C117.603 39.9753 117.38 40.2145 117.22 40.5244C117.065 40.8343 116.988 41.2057 116.988 41.6387V46H115.798ZM123.593 46V38.6309H124.783V46H123.593ZM124.195 37.209C123.972 37.209 123.778 37.1292 123.614 36.9697C123.454 36.8057 123.375 36.612 123.375 36.3887C123.375 36.1608 123.454 35.9671 123.614 35.8076C123.778 35.6481 123.972 35.5684 124.195 35.5684C124.423 35.5684 124.616 35.6481 124.776 35.8076C124.935 35.9671 125.015 36.1608 125.015 36.3887C125.015 36.612 124.935 36.8057 124.776 36.9697C124.616 37.1292 124.423 37.209 124.195 37.209ZM129.146 46.1299C128.599 46.1299 128.116 46.0479 127.697 45.8838C127.278 45.7152 126.941 45.4805 126.685 45.1797C126.435 44.8789 126.287 44.5257 126.241 44.1201H127.458C127.558 44.4255 127.754 44.6715 128.046 44.8584C128.337 45.0452 128.718 45.1387 129.187 45.1387C129.52 45.1387 129.812 45.0908 130.062 44.9951C130.317 44.8949 130.518 44.7604 130.664 44.5918C130.81 44.4186 130.883 44.2204 130.883 43.9971V43.9834C130.883 43.7327 130.782 43.5208 130.582 43.3477C130.381 43.1699 130.053 43.0264 129.597 42.917L128.456 42.6436C127.996 42.5342 127.617 42.3929 127.321 42.2197C127.025 42.042 126.806 41.8255 126.665 41.5703C126.524 41.3105 126.453 41.0052 126.453 40.6543V40.6475C126.453 40.2373 126.571 39.8704 126.808 39.5469C127.05 39.2233 127.378 38.9681 127.793 38.7812C128.207 38.5944 128.675 38.501 129.194 38.501C129.709 38.501 130.165 38.583 130.561 38.7471C130.962 38.9066 131.284 39.1344 131.525 39.4307C131.771 39.7269 131.922 40.0755 131.976 40.4766H130.807C130.73 40.1849 130.552 39.9479 130.274 39.7656C129.996 39.5833 129.634 39.4922 129.187 39.4922C128.896 39.4922 128.636 39.54 128.408 39.6357C128.18 39.7269 128 39.8545 127.868 40.0186C127.736 40.1826 127.67 40.374 127.67 40.5928V40.6064C127.67 40.7705 127.713 40.9163 127.8 41.0439C127.886 41.1715 128.021 41.2832 128.203 41.3789C128.385 41.4746 128.62 41.5589 128.907 41.6318L130.042 41.9053C130.734 42.0739 131.249 42.3154 131.587 42.6299C131.928 42.9443 132.099 43.3659 132.099 43.8945V43.9082C132.099 44.3457 131.969 44.7331 131.71 45.0703C131.45 45.403 131.097 45.6628 130.65 45.8496C130.208 46.0365 129.707 46.1299 129.146 46.1299Z" fill="#007AFF"/>
<path d="M19.5957 107.461C19.1536 106.873 18.7891 106.249 18.502 105.588C18.2148 104.927 18.0007 104.223 17.8594 103.476C17.7227 102.728 17.6543 101.931 17.6543 101.083C17.6543 100.235 17.7227 99.4401 17.8594 98.6973C17.9961 97.9499 18.208 97.2458 18.4951 96.585C18.7822 95.9196 19.1491 95.293 19.5957 94.7051H20.5938C20.3477 95.0195 20.1175 95.416 19.9033 95.8945C19.6937 96.373 19.5114 96.9017 19.3564 97.4805C19.2015 98.0547 19.0807 98.6517 18.9941 99.2715C18.9076 99.8867 18.8643 100.491 18.8643 101.083C18.8643 101.68 18.9076 102.288 18.9941 102.908C19.0807 103.523 19.2015 104.12 19.3564 104.699C19.5114 105.273 19.6937 105.798 19.9033 106.271C20.1175 106.75 20.3477 107.146 20.5938 107.461H19.5957ZM26.5432 105V102.956H21.7375V101.835C22.0064 101.388 22.2798 100.937 22.5578 100.481C22.8358 100.021 23.1161 99.5632 23.3986 99.1074C23.6858 98.6471 23.9729 98.1914 24.26 97.7402C24.5471 97.2891 24.8319 96.8447 25.1145 96.4072C25.4016 95.9697 25.6841 95.5459 25.9621 95.1357H27.7463V101.855H29.1477V102.956H27.7463V105H26.5432ZM22.9953 101.862H26.55V96.2773H26.468C26.2447 96.61 26.0168 96.9564 25.7844 97.3164C25.552 97.6719 25.315 98.0365 25.0734 98.4102C24.8365 98.7839 24.5995 99.1598 24.3625 99.5381C24.1255 99.9163 23.8908 100.295 23.6584 100.673C23.4305 101.047 23.2095 101.416 22.9953 101.78V101.862ZM33.9418 105.232C33.2126 105.232 32.5883 105.023 32.0688 104.604C31.5538 104.184 31.1573 103.59 30.8793 102.819C30.6013 102.045 30.4623 101.129 30.4623 100.071V100.058C30.4623 99.0003 30.6013 98.0866 30.8793 97.3164C31.1573 96.5462 31.5538 95.9515 32.0688 95.5322C32.5883 95.113 33.2126 94.9033 33.9418 94.9033C34.671 94.9033 35.2953 95.113 35.8149 95.5322C36.3344 95.9515 36.7332 96.5462 37.0111 97.3164C37.2937 98.0866 37.435 99.0003 37.435 100.058V100.071C37.435 101.129 37.2937 102.045 37.0111 102.819C36.7332 103.59 36.3344 104.184 35.8149 104.604C35.2953 105.023 34.671 105.232 33.9418 105.232ZM33.9418 104.159C34.4158 104.159 34.8191 103.993 35.1518 103.66C35.489 103.327 35.7465 102.856 35.9242 102.245C36.1065 101.634 36.1977 100.91 36.1977 100.071V100.058C36.1977 99.2191 36.1065 98.4967 35.9242 97.8906C35.7465 97.2799 35.489 96.8105 35.1518 96.4824C34.8191 96.1497 34.4158 95.9834 33.9418 95.9834C33.4724 95.9834 33.0691 96.1497 32.7319 96.4824C32.3992 96.8105 32.144 97.2799 31.9662 97.8906C31.7885 98.4967 31.6996 99.2191 31.6996 100.058V100.071C31.6996 100.91 31.7885 101.634 31.9662 102.245C32.144 102.856 32.3992 103.327 32.7319 103.66C33.0691 103.993 33.4724 104.159 33.9418 104.159ZM42.2906 105.232C41.68 105.232 41.1354 105.112 40.6569 104.87C40.1783 104.629 39.7933 104.3 39.5016 103.886C39.2145 103.466 39.0459 102.995 38.9957 102.471L38.9889 102.396H40.1715L40.1783 102.45C40.2194 102.765 40.3333 103.052 40.5201 103.312C40.7115 103.567 40.9599 103.77 41.2653 103.92C41.5752 104.07 41.9215 104.146 42.3043 104.146C42.7418 104.146 43.1269 104.05 43.4596 103.858C43.7923 103.662 44.052 103.394 44.2389 103.052C44.4257 102.71 44.5192 102.318 44.5192 101.876V101.862C44.5192 101.425 44.4235 101.037 44.2321 100.7C44.0452 100.358 43.7877 100.092 43.4596 99.9004C43.1315 99.709 42.7532 99.6133 42.3248 99.6133C41.9967 99.6133 41.6936 99.6634 41.4156 99.7637C41.1422 99.8639 40.8984 100.014 40.6842 100.215C40.5976 100.297 40.5156 100.386 40.4381 100.481C40.3652 100.577 40.2968 100.684 40.233 100.803H39.1666L39.6862 95.1357H45.1754V96.2363H40.6569L40.3219 99.5723H40.4313C40.5771 99.349 40.7571 99.1621 40.9713 99.0117C41.1855 98.8613 41.4248 98.7474 41.6891 98.6699C41.958 98.5879 42.2405 98.5469 42.5367 98.5469C43.1565 98.5469 43.7057 98.6904 44.1842 98.9775C44.6627 99.2601 45.0387 99.6497 45.3121 100.146C45.5856 100.639 45.7223 101.204 45.7223 101.842V101.855C45.7223 102.516 45.5742 103.102 45.278 103.612C44.9863 104.118 44.583 104.515 44.068 104.802C43.553 105.089 42.9606 105.232 42.2906 105.232ZM47.9461 107.461H46.9481C47.1942 107.146 47.422 106.75 47.6317 106.271C47.8459 105.798 48.0304 105.273 48.1854 104.699C48.3403 104.12 48.4611 103.523 48.5477 102.908C48.6343 102.288 48.6776 101.68 48.6776 101.083C48.6776 100.491 48.6343 99.8867 48.5477 99.2715C48.4611 98.6517 48.3403 98.0547 48.1854 97.4805C48.0304 96.9017 47.8459 96.373 47.6317 95.8945C47.422 95.416 47.1942 95.0195 46.9481 94.7051H47.9461C48.3927 95.293 48.7596 95.9196 49.0467 96.585C49.3338 97.2458 49.5457 97.9499 49.6825 98.6973C49.8192 99.4401 49.8875 100.235 49.8875 101.083C49.8875 101.931 49.8169 102.728 49.6756 103.476C49.5389 104.223 49.327 104.927 49.0399 105.588C48.7573 106.249 48.3927 106.873 47.9461 107.461ZM59.0042 105.232C58.3935 105.232 57.8489 105.112 57.3704 104.87C56.8918 104.629 56.5068 104.3 56.2151 103.886C55.928 103.466 55.7594 102.995 55.7092 102.471L55.7024 102.396H56.885L56.8918 102.45C56.9329 102.765 57.0468 103.052 57.2336 103.312C57.425 103.567 57.6734 103.77 57.9788 103.92C58.2887 104.07 58.635 104.146 59.0178 104.146C59.4553 104.146 59.8404 104.05 60.1731 103.858C60.5058 103.662 60.7655 103.394 60.9524 103.052C61.1392 102.71 61.2327 102.318 61.2327 101.876V101.862C61.2327 101.425 61.137 101.037 60.9456 100.7C60.7587 100.358 60.5012 100.092 60.1731 99.9004C59.845 99.709 59.4667 99.6133 59.0383 99.6133C58.7102 99.6133 58.4071 99.6634 58.1292 99.7637C57.8557 99.8639 57.6119 100.014 57.3977 100.215C57.3111 100.297 57.2291 100.386 57.1516 100.481C57.0787 100.577 57.0103 100.684 56.9465 100.803H55.8801L56.3997 95.1357H61.8889V96.2363H57.3704L57.0354 99.5723H57.1448C57.2906 99.349 57.4706 99.1621 57.6848 99.0117C57.899 98.8613 58.1383 98.7474 58.4026 98.6699C58.6715 98.5879 58.954 98.5469 59.2502 98.5469C59.87 98.5469 60.4192 98.6904 60.8977 98.9775C61.3762 99.2601 61.7522 99.6497 62.0256 100.146C62.2991 100.639 62.4358 101.204 62.4358 101.842V101.855C62.4358 102.516 62.2877 103.102 61.9915 103.612C61.6998 104.118 61.2965 104.515 60.7815 104.802C60.2665 105.089 59.6741 105.232 59.0042 105.232ZM67.2504 105.232C66.6398 105.232 66.0952 105.112 65.6167 104.87C65.1381 104.629 64.7531 104.3 64.4614 103.886C64.1743 103.466 64.0057 102.995 63.9555 102.471L63.9487 102.396H65.1313L65.1381 102.45C65.1792 102.765 65.2931 103.052 65.4799 103.312C65.6713 103.567 65.9197 103.77 66.2251 103.92C66.535 104.07 66.8813 104.146 67.2641 104.146C67.7016 104.146 68.0867 104.05 68.4194 103.858C68.7521 103.662 69.0118 103.394 69.1987 103.052C69.3855 102.71 69.479 102.318 69.479 101.876V101.862C69.479 101.425 69.3833 101.037 69.1919 100.7C69.005 100.358 68.7475 100.092 68.4194 99.9004C68.0913 99.709 67.713 99.6133 67.2846 99.6133C66.9565 99.6133 66.6534 99.6634 66.3754 99.7637C66.102 99.8639 65.8582 100.014 65.644 100.215C65.5574 100.297 65.4754 100.386 65.3979 100.481C65.325 100.577 65.2566 100.684 65.1928 100.803H64.1264L64.646 95.1357H70.1352V96.2363H65.6167L65.2817 99.5723H65.3911C65.5369 99.349 65.7169 99.1621 65.9311 99.0117C66.1453 98.8613 66.3846 98.7474 66.6489 98.6699C66.9178 98.5879 67.2003 98.5469 67.4965 98.5469C68.1163 98.5469 68.6655 98.6904 69.144 98.9775C69.6225 99.2601 69.9985 99.6497 70.2719 100.146C70.5454 100.639 70.6821 101.204 70.6821 101.842V101.855C70.6821 102.516 70.534 103.102 70.2378 103.612C69.9461 104.118 69.5428 104.515 69.0278 104.802C68.5128 105.089 67.9204 105.232 67.2504 105.232ZM75.4967 105.232C74.8861 105.232 74.3415 105.112 73.863 104.87C73.3844 104.629 72.9993 104.3 72.7077 103.886C72.4206 103.466 72.252 102.995 72.2018 102.471L72.195 102.396H73.3776L73.3844 102.45C73.4255 102.765 73.5394 103.052 73.7262 103.312C73.9176 103.567 74.166 103.77 74.4714 103.92C74.7812 104.07 75.1276 104.146 75.5104 104.146C75.9479 104.146 76.333 104.05 76.6657 103.858C76.9984 103.662 77.2581 103.394 77.445 103.052C77.6318 102.71 77.7253 102.318 77.7253 101.876V101.862C77.7253 101.425 77.6296 101.037 77.4381 100.7C77.2513 100.358 76.9938 100.092 76.6657 99.9004C76.3376 99.709 75.9593 99.6133 75.5309 99.6133C75.2028 99.6133 74.8997 99.6634 74.6217 99.7637C74.3483 99.8639 74.1045 100.014 73.8903 100.215C73.8037 100.297 73.7217 100.386 73.6442 100.481C73.5713 100.577 73.5029 100.684 73.4391 100.803H72.3727L72.8923 95.1357H78.3815V96.2363H73.863L73.528 99.5723H73.6374C73.7832 99.349 73.9632 99.1621 74.1774 99.0117C74.3916 98.8613 74.6309 98.7474 74.8952 98.6699C75.1641 98.5879 75.4466 98.5469 75.7428 98.5469C76.3626 98.5469 76.9118 98.6904 77.3903 98.9775C77.8688 99.2601 78.2448 99.6497 78.5182 100.146C78.7917 100.639 78.9284 101.204 78.9284 101.842V101.855C78.9284 102.516 78.7803 103.102 78.484 103.612C78.1924 104.118 77.7891 104.515 77.2741 104.802C76.7591 105.089 76.1667 105.232 75.4967 105.232ZM80.4071 101.582V100.475H85.0009V101.582H80.4071ZM90.0001 105.232C89.2709 105.232 88.6466 105.023 88.127 104.604C87.6121 104.184 87.2156 103.59 86.9376 102.819C86.6596 102.045 86.5206 101.129 86.5206 100.071V100.058C86.5206 99.0003 86.6596 98.0866 86.9376 97.3164C87.2156 96.5462 87.6121 95.9515 88.127 95.5322C88.6466 95.113 89.2709 94.9033 90.0001 94.9033C90.7292 94.9033 91.3536 95.113 91.8731 95.5322C92.3927 95.9515 92.7914 96.5462 93.0694 97.3164C93.352 98.0866 93.4932 99.0003 93.4932 100.058V100.071C93.4932 101.129 93.352 102.045 93.0694 102.819C92.7914 103.59 92.3927 104.184 91.8731 104.604C91.3536 105.023 90.7292 105.232 90.0001 105.232ZM90.0001 104.159C90.474 104.159 90.8774 103.993 91.21 103.66C91.5473 103.327 91.8048 102.856 91.9825 102.245C92.1648 101.634 92.2559 100.91 92.2559 100.071V100.058C92.2559 99.2191 92.1648 98.4967 91.9825 97.8906C91.8048 97.2799 91.5473 96.8105 91.21 96.4824C90.8774 96.1497 90.474 95.9834 90.0001 95.9834C89.5307 95.9834 89.1274 96.1497 88.7901 96.4824C88.4574 96.8105 88.2022 97.2799 88.0245 97.8906C87.8468 98.4967 87.7579 99.2191 87.7579 100.058V100.071C87.7579 100.91 87.8468 101.634 88.0245 102.245C88.2022 102.856 88.4574 103.327 88.7901 103.66C89.1274 103.993 89.5307 104.159 90.0001 104.159ZM97.5218 105V96.5029H97.4124L94.9036 98.3213V97.0225L97.5286 95.1357H98.7522V105H97.5218ZM101.195 105V104.152L104.531 100.543C104.95 100.087 105.278 99.7113 105.515 99.415C105.752 99.1143 105.918 98.8431 106.014 98.6016C106.11 98.36 106.158 98.0957 106.158 97.8086V97.7949C106.158 97.4486 106.083 97.1387 105.932 96.8652C105.782 96.5918 105.568 96.3753 105.29 96.2158C105.012 96.0563 104.679 95.9766 104.292 95.9766C103.9 95.9766 103.556 96.0586 103.259 96.2227C102.963 96.3822 102.733 96.6077 102.569 96.8994C102.405 97.1865 102.323 97.5238 102.323 97.9111L102.316 97.9248L101.14 97.918L101.126 97.9111C101.131 97.3278 101.272 96.8105 101.55 96.3594C101.828 95.9036 102.211 95.5482 102.699 95.293C103.186 95.0332 103.745 94.9033 104.374 94.9033C104.948 94.9033 105.465 95.0241 105.925 95.2656C106.386 95.5026 106.748 95.8285 107.012 96.2432C107.281 96.6579 107.416 97.1318 107.416 97.665V97.6787C107.416 98.0524 107.349 98.4124 107.217 98.7588C107.09 99.1051 106.862 99.4902 106.534 99.9141C106.206 100.333 105.743 100.851 105.146 101.466L102.596 104.098L102.904 103.53V104.098L102.603 103.893H107.58V105H101.195ZM112.606 105.164C111.909 105.164 111.291 105.043 110.754 104.802C110.216 104.56 109.792 104.228 109.482 103.804C109.177 103.375 109.024 102.885 109.024 102.334V102.32C109.024 101.915 109.113 101.539 109.291 101.192C109.468 100.846 109.717 100.552 110.036 100.311C110.355 100.064 110.724 99.8936 111.143 99.7979V99.7705C110.606 99.6019 110.177 99.3239 109.858 98.9365C109.539 98.5492 109.38 98.0957 109.38 97.5762V97.5625C109.38 97.0658 109.519 96.6237 109.797 96.2363C110.075 95.8444 110.457 95.5368 110.945 95.3135C111.433 95.0856 111.986 94.9717 112.606 94.9717C113.231 94.9717 113.784 95.0856 114.267 95.3135C114.755 95.5368 115.138 95.8444 115.416 96.2363C115.694 96.6237 115.833 97.0658 115.833 97.5625V97.5762C115.833 98.0957 115.673 98.5492 115.354 98.9365C115.04 99.3239 114.611 99.6019 114.069 99.7705V99.7979C114.493 99.8936 114.862 100.064 115.176 100.311C115.495 100.552 115.744 100.846 115.922 101.192C116.099 101.539 116.188 101.915 116.188 102.32V102.334C116.188 102.885 116.036 103.375 115.73 103.804C115.425 104.228 115.001 104.56 114.459 104.802C113.921 105.043 113.303 105.164 112.606 105.164ZM112.606 104.091C113.062 104.091 113.463 104.013 113.809 103.858C114.16 103.699 114.436 103.482 114.636 103.209C114.837 102.931 114.937 102.614 114.937 102.259V102.245C114.937 101.885 114.837 101.566 114.636 101.288C114.44 101.01 114.167 100.791 113.816 100.632C113.465 100.472 113.062 100.393 112.606 100.393C112.15 100.393 111.747 100.472 111.396 100.632C111.045 100.791 110.77 101.01 110.569 101.288C110.373 101.566 110.275 101.885 110.275 102.245V102.259C110.275 102.614 110.375 102.931 110.576 103.209C110.776 103.482 111.052 103.699 111.403 103.858C111.754 104.013 112.155 104.091 112.606 104.091ZM112.606 99.3125C113.003 99.3125 113.351 99.2441 113.652 99.1074C113.953 98.9661 114.188 98.7725 114.356 98.5264C114.525 98.2803 114.609 97.9977 114.609 97.6787V97.665C114.609 97.346 114.525 97.0635 114.356 96.8174C114.188 96.5713 113.953 96.3799 113.652 96.2432C113.351 96.1019 113.003 96.0312 112.606 96.0312C112.21 96.0312 111.861 96.1019 111.56 96.2432C111.259 96.3799 111.025 96.5713 110.856 96.8174C110.688 97.0635 110.603 97.346 110.603 97.665V97.6787C110.603 97.9977 110.688 98.2803 110.856 98.5264C111.025 98.7725 111.259 98.9661 111.56 99.1074C111.861 99.2441 112.21 99.3125 112.606 99.3125Z" fill="#007AFF"/>
</svg>
