<svg width="430" height="44" viewBox="0 0 430 44" fill="none" xmlns="http://www.w3.org/2000/svg">
<path d="M13.2891 22.2441C13.2962 22.0221 13.3392 21.818 13.418 21.6318C13.5039 21.4456 13.6328 21.2666 13.8047 21.0947L22.0762 13.0059C22.3483 12.7337 22.6813 12.5977 23.0752 12.5977C23.3473 12.5977 23.5908 12.6621 23.8057 12.791C24.0277 12.9199 24.2031 13.0954 24.332 13.3174C24.4681 13.5322 24.5361 13.7721 24.5361 14.0371C24.5361 14.4382 24.3857 14.7891 24.085 15.0898L16.7266 22.2441L24.085 29.3984C24.3857 29.7064 24.5361 30.0573 24.5361 30.4512C24.5361 30.7233 24.4681 30.9668 24.332 31.1816C24.2031 31.3965 24.0277 31.5684 23.8057 31.6973C23.5908 31.8262 23.3473 31.8906 23.0752 31.8906C22.6813 31.8906 22.3483 31.7546 22.0762 31.4824L13.8047 23.3936C13.6257 23.2217 13.4932 23.0426 13.4072 22.8564C13.3285 22.6631 13.2891 22.459 13.2891 22.2441Z" fill="#E4AF0A"/>
<path d="M33.5728 28L37.9888 16.022H39.1343V17.9561H38.6611L35.1416 28H33.5728ZM35.5732 24.5718L36.0381 23.3018H41.4502L41.915 24.5718H35.5732ZM42.3135 28L38.7939 17.9561V16.022H39.4663L43.8823 28H42.3135ZM45.4528 28V15.499H46.8971V28H45.4528ZM49.3226 28V15.499H50.767V28H49.3226ZM57.4939 28V19.0518H58.9382V28H57.4939ZM58.2243 17.3252C57.9532 17.3252 57.718 17.2284 57.5188 17.0347C57.3251 16.8354 57.2282 16.6003 57.2282 16.3291C57.2282 16.0524 57.3251 15.8172 57.5188 15.6235C57.718 15.4299 57.9532 15.333 58.2243 15.333C58.501 15.333 58.7362 15.4299 58.9299 15.6235C59.1236 15.8172 59.2204 16.0524 59.2204 16.3291C59.2204 16.6003 59.1236 16.8354 58.9299 17.0347C58.7362 17.2284 58.501 17.3252 58.2243 17.3252ZM66.2362 28.2822C65.1516 28.2822 64.2136 28.0277 63.4223 27.5186C62.6309 27.0094 62.0194 26.2873 61.5878 25.3521C61.1617 24.4168 60.9486 23.3073 60.9486 22.0234V22.0068C60.9486 20.7174 61.1617 19.6051 61.5878 18.6699C62.0194 17.7347 62.6282 17.0125 63.414 16.5034C64.2053 15.9943 65.1433 15.7397 66.2279 15.7397C67.0691 15.7397 67.8327 15.9058 68.5189 16.2378C69.2107 16.5643 69.7807 17.0208 70.2289 17.6074C70.6771 18.1885 70.9594 18.8608 71.0756 19.6245L71.0673 19.6411H69.5648L69.5565 19.6245C69.4237 19.1099 69.1996 18.6672 68.8842 18.2964C68.5688 17.9201 68.1841 17.6296 67.7304 17.4248C67.2821 17.2201 66.7813 17.1177 66.2279 17.1177C65.4643 17.1177 64.8002 17.3169 64.2357 17.7153C63.6768 18.1138 63.2452 18.6782 62.9408 19.4087C62.6365 20.1392 62.4843 21.0052 62.4843 22.0068V22.0234C62.4843 23.0195 62.6365 23.8828 62.9408 24.6133C63.2452 25.3438 63.6768 25.9082 64.2357 26.3066C64.8002 26.7051 65.467 26.9043 66.2362 26.9043C66.7952 26.9043 67.3015 26.8158 67.7553 26.6387C68.209 26.4561 68.5909 26.1987 68.9008 25.8667C69.2107 25.5291 69.4265 25.1307 69.5482 24.6714L69.5648 24.6548H71.0756V24.6714C70.9428 25.4019 70.655 26.0382 70.2123 26.5806C69.7696 27.1174 69.2079 27.5352 68.5272 27.834C67.8521 28.1328 67.0884 28.2822 66.2362 28.2822ZM73.0528 28V15.499H74.4971V28H73.0528ZM80.5169 28.1577C79.6702 28.1577 78.9369 27.9723 78.3172 27.6016C77.7029 27.2253 77.227 26.6912 76.8894 25.9995C76.5574 25.3078 76.3914 24.486 76.3914 23.5342V23.5176C76.3914 22.5602 76.5574 21.7357 76.8894 21.0439C77.227 20.3522 77.7029 19.821 78.3172 19.4502C78.9369 19.0794 79.6702 18.894 80.5169 18.894C81.3691 18.894 82.1023 19.0794 82.7166 19.4502C83.3308 19.821 83.804 20.3522 84.136 21.0439C84.4736 21.7357 84.6423 22.5602 84.6423 23.5176V23.5342C84.6423 24.486 84.4736 25.3078 84.136 25.9995C83.804 26.6912 83.3308 27.2253 82.7166 27.6016C82.1023 27.9723 81.3691 28.1577 80.5169 28.1577ZM80.5169 26.8794C81.0813 26.8794 81.56 26.7466 81.9529 26.481C82.3458 26.2153 82.6446 25.8335 82.8494 25.3354C83.0597 24.8374 83.1648 24.237 83.1648 23.5342V23.5176C83.1648 22.8092 83.0597 22.2061 82.8494 21.708C82.6446 21.21 82.3458 20.8309 81.9529 20.5708C81.56 20.3052 81.0813 20.1724 80.5169 20.1724C79.9524 20.1724 79.4737 20.3052 79.0808 20.5708C78.6879 20.8309 78.3863 21.21 78.176 21.708C77.9713 22.2061 77.8689 22.8092 77.8689 23.5176V23.5342C77.8689 24.237 77.9713 24.8374 78.176 25.3354C78.3863 25.8335 78.6879 26.2153 79.0808 26.481C79.4737 26.7466 79.9524 26.8794 80.5169 26.8794ZM89.4501 28.1577C88.775 28.1577 88.2078 28.0304 87.7485 27.7759C87.2892 27.5158 86.9433 27.1395 86.7109 26.647C86.484 26.1489 86.3705 25.5485 86.3705 24.8457V19.0518H87.8149V24.4971C87.8149 25.2995 87.9698 25.8971 88.2797 26.29C88.5952 26.6829 89.1098 26.8794 89.8237 26.8794C90.2166 26.8794 90.5624 26.8213 90.8613 26.7051C91.1656 26.5889 91.4202 26.4229 91.6249 26.207C91.8297 25.9857 91.9819 25.7201 92.0815 25.4102C92.1866 25.0947 92.2392 24.7406 92.2392 24.3477V19.0518H93.6835V28H92.2392V26.6636H92.1064C91.9625 26.979 91.7661 27.2502 91.517 27.4771C91.268 27.6984 90.9692 27.8672 90.6205 27.9834C90.2774 28.0996 89.8873 28.1577 89.4501 28.1577ZM99.255 28.1577C98.5024 28.1577 97.8439 27.9668 97.2794 27.585C96.715 27.2031 96.2778 26.6663 95.9679 25.9746C95.658 25.2773 95.503 24.4639 95.503 23.5342V23.5176C95.503 22.5824 95.658 21.7689 95.9679 21.0771C96.2778 20.3854 96.7122 19.8486 97.2711 19.4668C97.8356 19.085 98.4969 18.894 99.255 18.894C99.6645 18.894 100.049 18.9604 100.409 19.0933C100.774 19.2205 101.098 19.4004 101.38 19.6328C101.662 19.8652 101.884 20.1419 102.044 20.4629H102.177V15.499H103.621V28H102.177V26.5723H102.044C101.861 26.9043 101.632 27.1893 101.355 27.4272C101.078 27.6597 100.763 27.8395 100.409 27.9668C100.055 28.0941 99.67 28.1577 99.255 28.1577ZM99.587 26.8794C100.129 26.8794 100.597 26.7438 100.99 26.4727C101.383 26.2015 101.684 25.8169 101.895 25.3188C102.105 24.8153 102.21 24.2204 102.21 23.5342V23.5176C102.21 22.8258 102.105 22.231 101.895 21.7329C101.684 21.2349 101.383 20.8503 100.99 20.5791C100.597 20.3079 100.129 20.1724 99.587 20.1724C99.0447 20.1724 98.5771 20.3079 98.1842 20.5791C97.7968 20.8447 97.498 21.2266 97.2877 21.7246C97.083 22.2227 96.9806 22.8203 96.9806 23.5176V23.5342C96.9806 24.2259 97.083 24.8236 97.2877 25.3271C97.498 25.8252 97.7968 26.2098 98.1842 26.481C98.5771 26.7466 99.0447 26.8794 99.587 26.8794Z" fill="#E4AF0A"/>
<path d="M232.5 33.2012C230.989 33.2012 229.571 32.9147 228.246 32.3418C226.921 31.776 225.757 30.9919 224.755 29.9893C223.752 28.9867 222.965 27.8229 222.392 26.498C221.826 25.1732 221.543 23.7552 221.543 22.2441C221.543 20.7331 221.826 19.3151 222.392 17.9902C222.965 16.6654 223.752 15.5016 224.755 14.499C225.757 13.4893 226.921 12.7015 228.246 12.1357C229.571 11.57 230.989 11.2871 232.5 11.2871C234.011 11.2871 235.429 11.57 236.754 12.1357C238.079 12.7015 239.243 13.4893 240.245 14.499C241.248 15.5016 242.032 16.6654 242.598 17.9902C243.171 19.3151 243.457 20.7331 243.457 22.2441C243.457 23.7552 243.171 25.1732 242.598 26.498C242.032 27.8229 241.248 28.9867 240.245 29.9893C239.243 30.9919 238.079 31.776 236.754 32.3418C235.429 32.9147 234.011 33.2012 232.5 33.2012ZM232.5 31.375C233.76 31.375 234.942 31.1387 236.045 30.666C237.148 30.1934 238.118 29.5381 238.956 28.7002C239.794 27.8623 240.449 26.8919 240.922 25.7891C241.395 24.6862 241.631 23.5046 241.631 22.2441C241.631 20.9837 241.395 19.8021 240.922 18.6992C240.449 17.5892 239.794 16.6188 238.956 15.7881C238.118 14.9502 237.148 14.2949 236.045 13.8223C234.942 13.3496 233.76 13.1133 232.5 13.1133C231.24 13.1133 230.058 13.3496 228.955 13.8223C227.852 14.2949 226.882 14.9502 226.044 15.7881C225.206 16.6188 224.551 17.5892 224.078 18.6992C223.605 19.8021 223.369 20.9837 223.369 22.2441C223.369 23.5046 223.605 24.6862 224.078 25.7891C224.551 26.8919 225.206 27.8623 226.044 28.7002C226.882 29.5381 227.852 30.1934 228.955 30.666C230.058 31.1387 231.24 31.375 232.5 31.375ZM238.032 23.5547C238.032 24.4141 237.842 25.1589 237.463 25.7891C237.083 26.4121 236.561 26.8955 235.895 27.2393C235.236 27.5758 234.487 27.7441 233.649 27.7441C233.606 27.7441 233.467 27.7441 233.23 27.7441C233.001 27.7441 232.772 27.7441 232.543 27.7441C232.321 27.7441 232.199 27.7441 232.178 27.7441C231.941 27.7441 231.744 27.6797 231.587 27.5508C231.429 27.4147 231.351 27.2214 231.351 26.9707C231.351 26.7201 231.429 26.5303 231.587 26.4014C231.744 26.2725 231.934 26.208 232.156 26.208C232.171 26.208 232.292 26.208 232.521 26.208C232.758 26.208 232.994 26.208 233.23 26.208C233.467 26.208 233.606 26.208 233.649 26.208C234.466 26.208 235.135 25.9645 235.658 25.4775C236.188 24.9834 236.453 24.3138 236.453 23.4688C236.453 22.638 236.185 22.0042 235.647 21.5674C235.118 21.1234 234.455 20.9014 233.66 20.9014H230.459L229.181 20.8584L229.814 21.3203L231.157 22.6094C231.308 22.7526 231.383 22.9388 231.383 23.168C231.383 23.39 231.308 23.5762 231.157 23.7266C231.014 23.877 230.839 23.9521 230.631 23.9521C230.409 23.9521 230.223 23.877 230.072 23.7266L227.215 20.7939C227.021 20.6077 226.925 20.3929 226.925 20.1494C226.925 19.8988 227.021 19.6803 227.215 19.4941L230.062 16.5938C230.212 16.4362 230.398 16.3574 230.62 16.3574C230.835 16.3574 231.014 16.4326 231.157 16.583C231.308 16.7334 231.383 16.9196 231.383 17.1416C231.383 17.3636 231.304 17.5498 231.146 17.7002L230.029 18.7744L229.181 19.4404L230.459 19.3975H233.66C234.498 19.3975 235.246 19.5658 235.905 19.9023C236.564 20.2318 237.083 20.708 237.463 21.3311C237.842 21.9469 238.032 22.6882 238.032 23.5547Z" fill="#3C3C43" fill-opacity="0.3"/>
<path d="M281.5 33.2012C279.989 33.2012 278.571 32.9147 277.246 32.3418C275.921 31.776 274.757 30.9919 273.755 29.9893C272.752 28.9867 271.965 27.8229 271.392 26.498C270.826 25.1732 270.543 23.7552 270.543 22.2441C270.543 20.7331 270.826 19.3151 271.392 17.9902C271.965 16.6654 272.752 15.5016 273.755 14.499C274.757 13.4893 275.921 12.7015 277.246 12.1357C278.571 11.57 279.989 11.2871 281.5 11.2871C283.011 11.2871 284.429 11.57 285.754 12.1357C287.079 12.7015 288.243 13.4893 289.245 14.499C290.248 15.5016 291.032 16.6654 291.598 17.9902C292.171 19.3151 292.457 20.7331 292.457 22.2441C292.457 23.7552 292.171 25.1732 291.598 26.498C291.032 27.8229 290.248 28.9867 289.245 29.9893C288.243 30.9919 287.079 31.776 285.754 32.3418C284.429 32.9147 283.011 33.2012 281.5 33.2012ZM281.5 31.375C282.76 31.375 283.942 31.1387 285.045 30.666C286.148 30.1934 287.118 29.5381 287.956 28.7002C288.794 27.8623 289.449 26.8919 289.922 25.7891C290.395 24.6862 290.631 23.5046 290.631 22.2441C290.631 20.9837 290.395 19.8021 289.922 18.6992C289.449 17.5892 288.794 16.6188 287.956 15.7881C287.118 14.9502 286.148 14.2949 285.045 13.8223C283.942 13.3496 282.76 13.1133 281.5 13.1133C280.24 13.1133 279.058 13.3496 277.955 13.8223C276.852 14.2949 275.882 14.9502 275.044 15.7881C274.206 16.6188 273.551 17.5892 273.078 18.6992C272.605 19.8021 272.369 20.9837 272.369 22.2441C272.369 23.5046 272.605 24.6862 273.078 25.7891C273.551 26.8919 274.206 27.8623 275.044 28.7002C275.882 29.5381 276.852 30.1934 277.955 30.666C279.058 31.1387 280.24 31.375 281.5 31.375ZM275.925 23.5547C275.925 22.6882 276.115 21.9469 276.494 21.3311C276.874 20.708 277.393 20.2318 278.052 19.9023C278.711 19.5658 279.459 19.3975 280.297 19.3975H283.498L284.776 19.4404L283.928 18.7744L282.811 17.7002C282.653 17.5498 282.574 17.3636 282.574 17.1416C282.574 16.9196 282.646 16.7334 282.789 16.583C282.939 16.4326 283.122 16.3574 283.337 16.3574C283.559 16.3574 283.745 16.4362 283.896 16.5938L286.742 19.4941C286.936 19.6803 287.032 19.8988 287.032 20.1494C287.032 20.3929 286.936 20.6077 286.742 20.7939L283.885 23.7266C283.734 23.877 283.548 23.9521 283.326 23.9521C283.118 23.9521 282.939 23.877 282.789 23.7266C282.646 23.5762 282.574 23.39 282.574 23.168C282.574 22.9388 282.649 22.7526 282.8 22.6094L284.153 21.3203L284.776 20.8584L283.498 20.9014H280.297C279.509 20.9014 278.847 21.1234 278.31 21.5674C277.772 22.0042 277.504 22.638 277.504 23.4688C277.504 24.3138 277.769 24.9834 278.299 25.4775C278.829 25.9645 279.498 26.208 280.308 26.208C280.351 26.208 280.49 26.208 280.727 26.208C280.97 26.208 281.206 26.208 281.436 26.208C281.665 26.208 281.786 26.208 281.801 26.208C282.03 26.208 282.22 26.2725 282.37 26.4014C282.528 26.5303 282.606 26.7201 282.606 26.9707C282.606 27.2214 282.528 27.4147 282.37 27.5508C282.213 27.6797 282.016 27.7441 281.779 27.7441C281.758 27.7441 281.632 27.7441 281.403 27.7441C281.181 27.7441 280.952 27.7441 280.716 27.7441C280.487 27.7441 280.351 27.7441 280.308 27.7441C279.47 27.7441 278.721 27.5758 278.062 27.2393C277.404 26.8955 276.881 26.4121 276.494 25.7891C276.115 25.1589 275.925 24.4141 275.925 23.5547Z" fill="#3C3C43" fill-opacity="0.3"/>
<path d="M330.5 33.2012C328.989 33.2012 327.571 32.9147 326.246 32.3418C324.921 31.776 323.757 30.9919 322.755 29.9893C321.752 28.9867 320.965 27.8229 320.392 26.498C319.826 25.1732 319.543 23.7552 319.543 22.2441C319.543 20.7331 319.826 19.3151 320.392 17.9902C320.965 16.6654 321.752 15.5016 322.755 14.499C323.757 13.4893 324.921 12.7015 326.246 12.1357C327.571 11.57 328.989 11.2871 330.5 11.2871C332.011 11.2871 333.429 11.57 334.754 12.1357C336.079 12.7015 337.243 13.4893 338.245 14.499C339.248 15.5016 340.032 16.6654 340.598 17.9902C341.171 19.3151 341.457 20.7331 341.457 22.2441C341.457 23.7552 341.171 25.1732 340.598 26.498C340.032 27.8229 339.248 28.9867 338.245 29.9893C337.243 30.9919 336.079 31.776 334.754 32.3418C333.429 32.9147 332.011 33.2012 330.5 33.2012ZM330.5 31.375C331.76 31.375 332.942 31.1387 334.045 30.666C335.148 30.1934 336.118 29.5381 336.956 28.7002C337.794 27.8623 338.449 26.8919 338.922 25.7891C339.395 24.6862 339.631 23.5046 339.631 22.2441C339.631 20.9837 339.395 19.8021 338.922 18.6992C338.449 17.5892 337.794 16.6188 336.956 15.7881C336.118 14.9502 335.148 14.2949 334.045 13.8223C332.942 13.3496 331.76 13.1133 330.5 13.1133C329.24 13.1133 328.058 13.3496 326.955 13.8223C325.852 14.2949 324.882 14.9502 324.044 15.7881C323.206 16.6188 322.551 17.5892 322.078 18.6992C321.605 19.8021 321.369 20.9837 321.369 22.2441C321.369 23.5046 321.605 24.6862 322.078 25.7891C322.551 26.8919 323.206 27.8623 324.044 28.7002C324.882 29.5381 325.852 30.1934 326.955 30.666C328.058 31.1387 329.24 31.375 330.5 31.375ZM325.483 23.791C325.054 23.791 324.685 23.6406 324.377 23.3398C324.076 23.0319 323.926 22.6631 323.926 22.2334C323.926 21.8037 324.076 21.4385 324.377 21.1377C324.685 20.8298 325.054 20.6758 325.483 20.6758C325.906 20.6758 326.271 20.8298 326.579 21.1377C326.887 21.4385 327.041 21.8037 327.041 22.2334C327.041 22.6631 326.887 23.0319 326.579 23.3398C326.278 23.6406 325.913 23.791 325.483 23.791ZM330.489 23.791C330.067 23.791 329.701 23.6406 329.394 23.3398C329.093 23.0319 328.942 22.6631 328.942 22.2334C328.942 21.8037 329.093 21.4385 329.394 21.1377C329.701 20.8298 330.067 20.6758 330.489 20.6758C330.919 20.6758 331.284 20.8298 331.585 21.1377C331.893 21.4385 332.047 21.8037 332.047 22.2334C332.047 22.6631 331.893 23.0319 331.585 23.3398C331.284 23.6406 330.919 23.791 330.489 23.791ZM335.506 23.791C335.076 23.791 334.707 23.6406 334.399 23.3398C334.099 23.0319 333.948 22.6631 333.948 22.2334C333.948 21.8037 334.099 21.4385 334.399 21.1377C334.707 20.8298 335.076 20.6758 335.506 20.6758C335.936 20.6758 336.301 20.8298 336.602 21.1377C336.91 21.4385 337.063 21.8037 337.063 22.2334C337.063 22.6631 336.91 23.0319 336.602 23.3398C336.301 23.6406 335.936 23.791 335.506 23.791Z" fill="#E4AF0A"/>
<path d="M368.941 28V16.022H373.432C374.621 16.022 375.634 16.2544 376.47 16.7192C377.311 17.1841 377.953 17.8592 378.395 18.7446C378.844 19.63 379.068 20.6981 379.068 21.9487V21.9653C379.068 23.2437 378.846 24.3338 378.404 25.2358C377.961 26.1323 377.319 26.8185 376.478 27.2944C375.642 27.7648 374.627 28 373.432 28H368.941ZM371.083 26.1987H373.149C373.941 26.1987 374.616 26.0355 375.175 25.709C375.734 25.3825 376.157 24.9066 376.445 24.2812C376.738 23.6559 376.885 22.895 376.885 21.9985V21.9819C376.885 21.1076 376.735 20.3605 376.437 19.7407C376.143 19.1154 375.717 18.6395 375.158 18.313C374.599 17.9865 373.93 17.8232 373.149 17.8232H371.083V26.1987ZM384.797 28.1826C383.895 28.1826 383.118 27.9945 382.465 27.6182C381.812 27.2363 381.308 26.694 380.954 25.9912C380.605 25.2884 380.431 24.4473 380.431 23.4678V23.4512C380.431 22.4827 380.608 21.6471 380.962 20.9443C381.316 20.236 381.817 19.6937 382.465 19.3174C383.118 18.9411 383.895 18.7529 384.797 18.7529C385.699 18.7529 386.474 18.9411 387.121 19.3174C387.774 19.6937 388.278 20.2332 388.632 20.936C388.986 21.6388 389.163 22.4772 389.163 23.4512V23.4678C389.163 24.4473 388.986 25.2884 388.632 25.9912C388.283 26.694 387.783 27.2363 387.13 27.6182C386.482 27.9945 385.705 28.1826 384.797 28.1826ZM384.797 26.5059C385.273 26.5059 385.677 26.3869 386.009 26.1489C386.347 25.9054 386.604 25.5596 386.781 25.1113C386.958 24.6576 387.047 24.1125 387.047 23.4761V23.4595C387.047 22.8175 386.958 22.2725 386.781 21.8242C386.604 21.3704 386.347 21.0246 386.009 20.7866C385.677 20.5431 385.273 20.4214 384.797 20.4214C384.321 20.4214 383.914 20.5431 383.577 20.7866C383.239 21.0246 382.982 21.3704 382.805 21.8242C382.628 22.2725 382.539 22.8175 382.539 23.4595V23.4761C382.539 24.1125 382.628 24.6576 382.805 25.1113C382.982 25.5651 383.236 25.911 383.569 26.1489C383.906 26.3869 384.316 26.5059 384.797 26.5059ZM390.808 28V18.9272H392.875V20.3218H393.016C393.232 19.8293 393.559 19.4447 393.996 19.168C394.433 18.8913 394.978 18.7529 395.631 18.7529C396.644 18.7529 397.419 19.0462 397.955 19.6328C398.492 20.2194 398.761 21.0522 398.761 22.1313V28H396.694V22.6128C396.694 21.9045 396.544 21.3732 396.245 21.019C395.952 20.6649 395.493 20.4878 394.868 20.4878C394.458 20.4878 394.104 20.5791 393.805 20.7617C393.506 20.9443 393.277 21.2017 393.116 21.5337C392.956 21.8657 392.875 22.2586 392.875 22.7124V28H390.808ZM404.656 28.1826C403.754 28.1826 402.979 27.9917 402.332 27.6099C401.69 27.228 401.194 26.6857 400.846 25.9829C400.497 25.2801 400.323 24.4473 400.323 23.4844V23.4761C400.323 22.5243 400.494 21.6942 400.837 20.9858C401.186 20.2775 401.679 19.7297 402.315 19.3423C402.951 18.9494 403.698 18.7529 404.556 18.7529C405.419 18.7529 406.161 18.9438 406.781 19.3257C407.406 19.702 407.888 20.2305 408.225 20.9111C408.563 21.5918 408.731 22.3887 408.731 23.3018V23.9824H401.36V22.5962H407.719L406.739 23.8911V23.0693C406.739 22.4661 406.648 21.9653 406.465 21.5669C406.283 21.1685 406.028 20.8696 405.702 20.6704C405.381 20.4712 405.007 20.3716 404.581 20.3716C404.155 20.3716 403.776 20.4767 403.444 20.687C403.117 20.8918 402.857 21.1961 402.664 21.6001C402.475 21.9985 402.381 22.4883 402.381 23.0693V23.8994C402.381 24.4583 402.475 24.937 402.664 25.3354C402.852 25.7284 403.117 26.0327 403.46 26.2485C403.809 26.4588 404.221 26.564 404.697 26.564C405.068 26.564 405.386 26.5114 405.652 26.4062C405.923 26.2956 406.142 26.1655 406.308 26.0161C406.474 25.8612 406.59 25.7145 406.656 25.5762L406.681 25.5181H408.64L408.624 25.5928C408.552 25.8861 408.419 26.1849 408.225 26.4893C408.037 26.7881 407.78 27.0675 407.453 27.3276C407.132 27.5822 406.739 27.7897 406.274 27.9502C405.81 28.1051 405.27 28.1826 404.656 28.1826Z" fill="#E4AF0A"/>
</svg>
