<svg xmlns="http://www.w3.org/2000/svg"  viewBox="0 0 48 48" width="480px" height="480px" fill-rule="evenodd" clip-rule="evenodd"><path fill="#d6e5e5" d="M4.041,10.123c0.01-1.078,0.245-1.862,0.654-2.712c0.251-0.523,0.529-1.045,0.943-1.452	c0.275-0.271,0.601-0.483,0.925-0.692c0.99-0.641,2.101-1.311,3.267-1.131c3.841,0.591,7.787,0.182,11.659-0.142	c4.265-0.357,8.635-0.064,12.952-0.087c2.521-0.013,5.254,0.042,7.241,1.594c1.65,1.288,2.464,3.408,2.686,5.489	s-0.356,4.174-0.236,6.264c0.316,5.496,0.005,10.765,0.242,16.146c0.08,1.805,0.135,3.639-0.307,5.391	c-0.442,1.752-1.451,3.439-3.038,4.301c-1.411,0.767-3.119,1.132-4.695,0.824c-2.232-0.436-4.546,0.056-6.819,0.083	c-0.595,0.007-1.189,0.015-1.784,0.022c-3.126,0.038-5.976-0.189-9.101-0.289C16.286,43.656,13.775,44,11.281,44	c-1.664,0-3.363-0.274-4.886-1.122c-1.131-0.63-1.854-1.832-2.19-3.083c-0.336-1.251-0.447-2.569-0.329-3.859	C4.725,26.691,4.024,9.858,4.041,10.123z"/><path fill="#d6e5e5" d="M17.237,14.574c0.152,0.006,0.318,0.017,0.43,0.121c0.126,0.117,0.137,0.31,0.14,0.482	c0.065,4.415,0.034,8.832-0.095,13.246c-0.004,0.135-0.001,0.288,0.096,0.382c0.08,0.077,0.201,0.09,0.312,0.098	c2.371,0.178,3.864,0.012,6.235-0.167c0.118-0.009,0.246-0.016,0.346,0.047c0.162,0.103,0.172,0.333,0.157,0.524	c-0.057,0.721-0.215,1.434-0.466,2.112c-0.063,0.169-0.136,0.343-0.271,0.463c-0.192,0.17-0.467,0.199-0.723,0.217	c-3.374,0.241-5.88,0.305-9.233-0.137c-0.747-1.414-0.31-2.472-0.502-4.06c-0.055-0.45,0.167-1.561,0.118-2.011	c-0.129-1.198-0.103-2.345-0.086-3.55c0.019-1.35-0.091-2.705,0.013-4.051c0.082-1.062,0.17-1.915,0.281-3.154	c0.079-0.88,0.293-0.679,1.006-0.651C15.741,14.516,16.489,14.545,17.237,14.574z"/><path fill="none" stroke="#010101" stroke-miterlimit="10" d="M4.041,10.123c0.01-1.078,0.245-1.862,0.654-2.712	c0.251-0.523,0.529-1.045,0.943-1.452c0.275-0.271,0.601-0.483,0.925-0.692c0.99-0.641,2.101-1.311,3.267-1.131	c3.841,0.591,7.787,0.182,11.659-0.142c4.265-0.357,8.635-0.064,12.952-0.087c2.521-0.013,5.254,0.042,7.241,1.594	c1.65,1.288,2.464,3.408,2.686,5.489s-0.356,4.174-0.236,6.264c0.316,5.496,0.005,10.765,0.242,16.146	c0.08,1.805,0.135,3.639-0.307,5.391c-0.442,1.752-1.451,3.439-3.038,4.301c-1.411,0.767-3.119,1.132-4.695,0.824	c-2.232-0.436-4.546,0.056-6.819,0.083c-0.595,0.007-1.189,0.015-1.784,0.022c-3.126,0.038-5.976-0.189-9.101-0.289	C16.286,43.656,13.775,44,11.281,44c-1.664,0-3.363-0.274-4.886-1.122c-1.131-0.63-1.854-1.832-2.19-3.083	c-0.336-1.251-0.447-2.569-0.329-3.859C4.725,26.691,4.024,9.858,4.041,10.123z"/><path fill="#373837" fill-rule="evenodd" d="M13.959,19.573c-1.757,2.063-3.459,4.555-3.459,6.534	c0,1.144,0.963,2.752,3.311,2.752c1.271,0,2.533-0.511,3.52-0.906c1.664-0.665,20.055-8.652,20.055-8.652	c0.178-0.089,0.144-0.2-0.078-0.144c-0.09,0.022-20.022,5.424-20.022,5.424c-0.384,0.108-0.778,0.166-1.16,0.166	c-1.723,0-2.884-0.826-2.884-2.633C13.242,21.413,13.461,20.567,13.959,19.573L13.959,19.573z" clip-rule="evenodd"/><path fill="none" stroke="#010101" stroke-linejoin="round" stroke-miterlimit="10" d="M13.968,19.58 c-1.757,2.063-3.351,4.547-3.351,6.527c0,1.144,0.846,2.876,3.194,2.876c1.271,0,2.495-0.74,3.483-1.135 c4.169-1.453,10.089-4.155,20.038-8.669c0.178-0.089,0.171-0.19-0.051-0.135c-0.09,0.022-9.967,2.882-19.977,5.597 c-0.384,0.108-0.794-0.024-1.177-0.024c-1.723,0-2.921-0.698-2.921-2.505c-0.001-0.7,0.299-1.523,0.797-2.518 C14.005,19.59,13.968,19.58,13.968,19.58z"/></svg>